<svg id="Layer_1" data-name="Layer 1" xmlns="http://www.w3.org/2000/svg" xmlns:xlink="http://www.w3.org/1999/xlink" viewBox="0 0 2040 1132.3"><defs><style>.cls-1{fill:none;}.cls-2{clip-path:url(#clip-path);}.cls-3,.cls-4{fill:#fac847;}.cls-3,.cls-4,.cls-5{fill-rule:evenodd;}.cls-4{fill-opacity:0.5;}.cls-5{fill:#290214;}</style><clipPath id="clip-path" transform="translate(0 -19.67)"><circle class="cls-1" cx="1019.98" cy="576" r="548.98"/></clipPath></defs><g class="cls-2"><g id="_2374344596224" data-name=" 2374344596224"><path class="cls-3" d="M1530.53,343.25c-2.41-17.8-45.1-99.19-55.47-108.88-22.34-20.83-51.65,6.86-69.54-5.53a225,225,0,0,1,24.66-13c3.12-1.45,10-4.17,12.53-6.07,6-4.47,4.54-1.92,6.83-9.07C1431.43,193,1345,215.8,1320.4,221.19c-77.7,17-853.65,279.27-883.53,345.82,405.24-133.37,677-223.73,1093.66-223.73Z" transform="translate(0 -19.67)"/><path class="cls-3" d="M1156.93,420.89c-10.52,1.73-21.15,2.47-29.09,3.68l-.62.09c6.38-7.17,2-9.55-26.67-1.82C924.91,470.24,785,486.17,636.69,524c-21.75,5.56-199.08,58.22-192.16,77.64-15.11,3.77-5.08,64.6,12.5,77.59l120.89-23h0c21.09-4,40.17-9,66.19-5.73-2.24,11.14-15.59,23-26.16,22.65,12.67.65,95.27-20.29,128.41-29.39,13.72,3.68,459.15-114.29,483.08-120.56,54.73-13.46,346-57.77,349.7-64.77-18.11-45.27-23.5-56.35-29.7-75.94-5.47-17.26-33.51-19-89.24-8.76-85.21,11.82-275.83,77.47-303.27,47.14Z" transform="translate(0 -19.67)"/><path class="cls-3" d="M1313.65,83.48c-188.44-32.06-366.57,8.48-399.51.17,110.35-14.94,177.9-43,321.5-41.86C898.41-33.76,676.12,94.34,532.37,272.69c-3.63,1.59,167-85.43,255.6-103.71,120.81-24.92,272.35-30.68,392.14-49.58C1236,110.58,1247,101.82,1313.65,83.48Z" transform="translate(0 -19.67)"/><path class="cls-3" d="M1192.81,235.93c21.21-1.08,200.86-60.49,221.27-70.33-4.28-10.54-23.75-25-31.57-32.23-17.15-15.84-22.34-16.35-49-10.74-36.65,7.68-115.87,32.63-153.38,39-143.43,23.67-242.24,27.73-385.76,50.72-69.22,15.59-225.27,70-293.13,118.88,0,0-30.22,72.11-46.86,130.82C690,411.79,961.62,310.54,1192.81,235.9Z" transform="translate(0 -19.67)"/><path class="cls-3" d="M763.28,659.56c-194.51,62.54-183.8,82.69-179.54,94,6.83,18.14,881.59-148.68,994.47-187,25.62-8.7,20.66-46.85-6.92-48.67-1.61-8.9-313.34,83.85-419.83,83.94,58.33-29,428-110.3,427.68-114.5C1618.32,455.58,1132.52,567.38,763.28,659.56Z" transform="translate(0 -19.67)"/><path class="cls-3" d="M847.67,749.54l-248,20.52,757,19c168.23-114.46,190.43,27.92,212.76-133.91C1327.77,696.93,1072.09,733.55,847.67,749.54Z" transform="translate(0 -19.67)"/><path class="cls-3" d="M501.28,801.38c2.41,17.8,45.09,99.19,55.47,108.88,22.34,20.83,51.65-6.86,69.53,5.53a223.16,223.16,0,0,1-24.66,13c-3.12,1.45-10,4.17-12.53,6.07-6,4.47-4.53,1.92-6.83,9.07,18.11,7.76,104.54-15.08,129.15-20.47,77.69-17,853.65-279.27,883.52-345.82C1189.69,711,918,801.35,501.28,801.35Z" transform="translate(0 -19.67)"/><path class="cls-3" d="M874.88,723.74C885.4,722,896,721.27,904,720.06l.63-.09c-6.38,7.17-2,9.55,26.67,1.82,175.63-47.4,315.58-63.33,463.86-101.2,21.74-5.56,199.08-58.22,192.16-77.64,15.11-3.77,5.07-64.6-12.5-77.59l-120.9,23.05h0c-21.09,4-40.16,9-66.19,5.73,2.24-11.14,15.59-23,26.17-22.65-12.67-.65-95.28,20.29-128.41,29.39-13.72-3.68-459.16,114.29-483.08,120.56-54.74,13.46-346,57.77-349.71,64.77,18.12,45.27,23.5,56.35,29.71,75.94,5.47,17.26,33.5,19,89.23,8.76,85.21-11.82,275.84-77.47,303.28-47.14Z" transform="translate(0 -19.67)"/><path class="cls-3" d="M718.15,1061.15c188.45,32.06,366.58-8.48,399.52-.17-110.36,14.94-177.91,43-321.51,41.86,337.24,75.55,559.53-52.55,703.27-230.9,3.63-1.59-167,85.43-255.59,103.71-120.82,24.92-272.36,30.68-392.15,49.58C795.79,1034.05,784.8,1042.81,718.15,1061.15Z" transform="translate(0 -19.67)"/><path class="cls-3" d="M839,908.7c-21.2,1.08-200.86,60.49-221.27,70.33,4.28,10.54,23.76,25,31.58,32.23,17.15,15.84,22.34,16.35,49,10.74,36.65-7.68,115.88-32.63,153.38-39,143.44-23.67,242.25-27.73,385.77-50.72,69.22-15.59,225.27-69.95,293.13-118.88,0,0,30.21-72.11,46.85-130.82C1341.8,732.84,1070.19,834.09,839,908.73Z" transform="translate(0 -19.67)"/><path class="cls-3" d="M1268.53,485.07c194.51-62.54,183.79-82.69,179.54-94-6.83-18.14-881.6,148.68-994.47,187-25.63,8.7-20.67,46.85,6.91,48.67,1.62,8.9,313.34-83.85,419.84-83.94-58.34,29-428,110.3-427.69,114.5C413.49,689.05,899.29,577.25,1268.53,485.07Z" transform="translate(0 -19.67)"/><path class="cls-3" d="M1184.14,395.09l248-20.52-757-19C507,470,484.75,327.66,462.41,489.49,704,447.7,959.72,411.08,1184.14,395.09Z" transform="translate(0 -19.67)"/></g></g><path class="cls-1" d="M1020,27c303.2,0,549,245.79,549,549s-245.79,549-549,549S471,879.19,471,576,716.79,27,1020,27Z" transform="translate(0 -19.67)"/><g class="cls-2"><polygon class="cls-1" points="471 7.35 1568.97 7.35 1568.97 1105.31 471 1105.31 471 7.35"/></g><g class="cls-2"><g id="_2374344588960" data-name=" 2374344588960"><path id="_1" data-name="1" class="cls-4" d="M1530.53,343.25c-2.41-17.8-45.1-99.19-55.47-108.88-22.34-20.83-51.65,6.86-69.54-5.53a225,225,0,0,1,24.66-13c3.12-1.45,10-4.17,12.53-6.07,6-4.47,4.54-1.92,6.83-9.07C1431.43,193,1345,215.8,1320.4,221.19c-77.7,17-853.65,279.27-883.53,345.82,405.24-133.37,677-223.73,1093.66-223.73Z" transform="translate(0 -19.67)"/><path class="cls-4" d="M1156.93,420.89c-10.52,1.73-21.15,2.47-29.09,3.68l-.62.09c6.38-7.17,2-9.55-26.67-1.82C924.91,470.24,785,486.17,636.69,524c-21.75,5.56-199.08,58.22-192.16,77.64-15.11,3.77-5.08,64.6,12.5,77.59l120.89-23h0c21.09-4,40.17-9,66.19-5.73-2.24,11.14-15.59,23-26.16,22.65,12.67.65,95.27-20.29,128.41-29.39,13.72,3.68,459.15-114.29,483.08-120.53,54.73-13.47,346-57.77,349.7-64.77-18.11-45.27-23.5-56.35-29.7-75.94-5.47-17.26-33.51-19-89.24-8.76C1375,385.57,1184.37,451.22,1156.93,420.89Z" transform="translate(0 -19.67)"/><path class="cls-4" d="M1313.65,83.48c-188.44-32.06-366.57,8.48-399.51.17,110.35-14.94,177.9-43,321.5-41.86C898.41-33.76,676.12,94.34,532.37,272.69c-3.63,1.59,167-85.43,255.6-103.71,120.81-24.92,272.35-30.68,392.14-49.58C1236,110.58,1247,101.82,1313.65,83.48Z" transform="translate(0 -19.67)"/><path class="cls-4" d="M1192.81,235.93c21.21-1.08,200.86-60.49,221.27-70.33-4.28-10.54-23.75-25-31.57-32.23-17.15-15.84-22.34-16.35-49-10.74-36.65,7.68-115.87,32.63-153.38,39-143.43,23.67-242.24,27.73-385.76,50.72-69.22,15.59-225.27,70-293.13,118.88,0,0-30.22,72.11-46.86,130.82C690,411.79,961.62,310.54,1192.81,235.9Z" transform="translate(0 -19.67)"/><path class="cls-4" d="M763.28,659.56c-194.51,62.54-183.8,82.69-179.54,94,6.83,18.14,881.59-148.68,994.47-187,25.62-8.7,20.66-46.85-6.92-48.67-1.61-8.9-313.34,83.85-419.83,83.94,58.33-29,428-110.3,427.68-114.5C1618.32,455.58,1132.52,567.38,763.28,659.56Z" transform="translate(0 -19.67)"/><path class="cls-4" d="M847.67,749.54l-248,20.52,757,19c168.23-114.46,190.43,27.92,212.76-133.91C1327.77,696.93,1072.09,733.55,847.67,749.54Z" transform="translate(0 -19.67)"/><path class="cls-4" d="M501.28,801.38c2.41,17.8,45.09,99.19,55.47,108.88,22.34,20.83,51.65-6.86,69.53,5.53a223.16,223.16,0,0,1-24.66,13c-3.12,1.45-10,4.17-12.53,6.07-6,4.47-4.53,1.92-6.83,9.07,18.11,7.76,104.54-15.08,129.15-20.47,77.69-17,853.65-279.27,883.52-345.82C1189.69,711,918,801.35,501.28,801.35Z" transform="translate(0 -19.67)"/><path class="cls-4" d="M874.88,723.74C885.4,722,896,721.27,904,720.06l.63-.09c-6.38,7.17-2,9.55,26.67,1.82,175.63-47.4,315.58-63.33,463.86-101.2,21.74-5.56,199.08-58.22,192.16-77.64,15.11-3.77,5.07-64.6-12.5-77.59l-120.9,23.05h0c-21.09,4-40.16,9-66.19,5.73,2.24-11.14,15.59-23,26.17-22.65-12.67-.65-95.28,20.29-128.41,29.39-13.72-3.68-459.16,114.29-483.08,120.53-54.74,13.47-346,57.77-349.71,64.77,18.12,45.27,23.5,56.35,29.71,75.94,5.47,17.26,33.5,19,89.23,8.76C656.81,759.06,847.44,693.41,874.88,723.74Z" transform="translate(0 -19.67)"/><path class="cls-4" d="M718.15,1061.15c188.45,32.06,366.58-8.48,399.52-.17-110.36,14.94-177.91,43-321.51,41.86,337.24,75.55,559.53-52.55,703.27-230.9,3.63-1.59-167,85.43-255.59,103.71-120.82,24.92-272.36,30.68-392.15,49.58C795.79,1034.05,784.8,1042.81,718.15,1061.15Z" transform="translate(0 -19.67)"/><path class="cls-4" d="M839,908.7c-21.2,1.08-200.86,60.49-221.27,70.33,4.28,10.54,23.76,25,31.58,32.23,17.15,15.84,22.34,16.35,49,10.74,36.65-7.68,115.88-32.63,153.38-39,143.44-23.67,242.25-27.73,385.77-50.72,69.22-15.59,225.27-69.95,293.13-118.88,0,0,30.21-72.11,46.85-130.82C1341.8,732.84,1070.19,834.09,839,908.73Z" transform="translate(0 -19.67)"/><path class="cls-4" d="M1268.53,485.07c194.51-62.54,183.79-82.69,179.54-94-6.83-18.14-881.6,148.68-994.47,187-25.63,8.7-20.67,46.85,6.91,48.67,1.62,8.9,313.34-83.85,419.84-83.94-58.34,29-428,110.3-427.69,114.5C413.49,689.05,899.29,577.25,1268.53,485.07Z" transform="translate(0 -19.67)"/><path class="cls-4" d="M1184.14,395.09l248-20.52-757-19C507,470,484.75,327.66,462.41,489.49,704,447.7,959.72,411.08,1184.14,395.09Z" transform="translate(0 -19.67)"/></g></g><path class="cls-1" d="M1020,27c303.2,0,549,245.79,549,549s-245.79,549-549,549S471,879.19,471,576,716.79,27,1020,27Z" transform="translate(0 -19.67)"/><path class="cls-5" d="M863.85,827.74c-9.52.29-20.75,2.07-29.76,1.59-4.22-.23-112.31-35.69-123.62-39.51-11.08-3.75-14.26-5.62-28.37-4.62L525,791.12c-13,1.28-53.24,0-61.54,3.77-15.25,7-29.91,12.81-45.44,19.19-30.67,12.59-60.83,26.42-92.1,38.83-8.08,3.21-15.48,6.41-23.27,9.84-10.38,4.56-14.4,1.73-26.08-.23-18.43-3.11-37.36-6.35-55.67-9.8-55.31-10.41-111.63-19-166.71-29.4l-41.7-7.26C1,813.85,7.31,814.9,0,812.8V1152H2040V906.72l-4-13.18c-16.33-3.21-31.55-7.43-48.07-11.12-15.91-3.54-31.72-7.39-47.29-11-46.46-10.86-97.71-21.94-143.29-33.34-26.36-6.6-22.9-6.15-50.4-7.62-37.53-2-74.66-3.07-111.79-5.73l-55.9-2.89c-14.8-.11-12.65-1.64-25.83,3.09l-107,39.57c-6.69,2.61-17.46,4-24.66,5.39l-73.45,13.94c-8.39,1.56-17.23,3.74-25.23,4.88-6.35.91-15.56-5.61-21-8-13.18-5.75-26.25-13.21-39.23-19.07L1262,837.3c2.49-2,5.21-2.13,7.51-3.35,8.76-4.62,14.17-11.31,15.65-21.34.73-5.11,3.17-27.1,1.7-31.21-1.62-4.48-9-4.88-11.57-1.08-2.24,3.34-1.73,9.92-2.18,14.46-1.3,13.72.48,22.82-8.9,25.14l-3.46.23c0-7.06-.88-14-1.13-20.84-.46-12,1.08-56-3.77-61.68-1.7-10.12-11-17-23.13-15.84-4.51,7.31.88,15.05,4.56,20.72,7.06,10.82,2.61,20.89,5.19,24.2-2,10.83,1.7,26.88-.51,36.34-9-3.26-5.81-12.67-7.74-21.82-2-9.41.11-17.35-10.18-19.16-10.17,5.47-1.61,22.3-1.1,32.54.93,19,8.79,14.54,18.73,22.67l-.7,36c-35.86.2-79.29,4.14-114.64,3.8-6.4-.06-78.29-24-89.77-27.67-8.33-2.67-29.82-10.38-37-10.29-22.42.23-62.42,5.1-83.42,5.33l-52.22,3.26Z" transform="translate(0 -19.67)"/><path class="cls-5" d="M555.67,735,568,706.45l1.7-6,1.41-10.15,17.78,5a41.06,41.06,0,0,0,16.07-1.22l-.6,4.45c.86,9.58,4.77,17,7.54,25.34l6.5,42.44-.85,23.89c-3.21-.48-4.26-1.36-6.38-1.81-11.54-2.41-5.13,3.09-14.63-1.87-3.71-1.93-2.86-1.7-6.83-3.12-8.31,4.25,2,1.59-6.43,6.09-2.92-5.84-6.47-3.45-12.36-3.85-7-.45-10.1,2-20.41,2.27,5.78-8,3-8.45,1.53-18.6-3-14.4-2.61-22.25,3.74-34.3Zm74.24-15.11c-1.78-13.63,1.22-23.92,10.4-29.53,8.71,1.39,10.32,5.61,14.8,10,4.08,4,9.3,7.83,12.11,12.13l8.9,9.16c4.93,3.94,6,3.43,7.68,11.68,1.07,9.58.9,20.61-4.14,26.79-10.8,24.4-23-.32-21.91,23.92-5.81,1.9-4.85,2.81-8.42,6.18l-1.11-4.9a4.22,4.22,0,0,0-.37-1.11l-8.24-2c-5.76-1-5.76,1.17-8,5.19-1.58-8.22-1.36-18.25.91-25.51,1.28-18.94-.2-24.24-2.61-42Zm-85.69-10.63-2.75,7.4c-2.89,9.3-4.31,12.08-4.25,23.05L541.41,770l1.88,16.55c-8.2-3.52-8.37-5.92-7.89-17.58,0-9.35-4.25-16.46-6.66-24.74-4.53-9.55-4.31-16.64,1.39-25.34l.6-2.64c.79-11.9-2-10.57,3.6-21.32,3-5.69,4.45-12.44,8-17.23,3.54,10.37,7.54,21.6,1.87,31.66ZM559.7,497.76l.88,6.21c.48,6,1.33,12.28,1.7,18.06.51,8.11-1.48,10.69-1.73,18.08l6.89,4.65-9,27.92c-7.14,2.41-11.2,2.44-18.45,5.62-29.45,12.89-26.56-9.36-50.2,21.62l-.43,11.17c3.23.91-.82,1.73,2.55-1.16,1.16-1,1.25-1.76,2.75-3.32l-3.15,10.63L491,632.61l2.44,17.91c-.68,9.61-5.07,18.94-4.42,25.2l3.09,7.12c1.56-6.86,1.11-5.42,5.64-9.3-5.21,9.72-6.18,10.74-4.48,23.81,4-1.3,3.77-2.81,6.83-7-1.5,8.76-4.87,9.72-9.89,14.34,9.95,3.69,18.4-11.08,20.07-21.43.11.2.51-29,1.13-29.65.15-.17,1.34-11.67,1.51-8,.39,8.11-.26,35.46-.23,35.57.45,2,1.9.06.06,8.59-2.21,10.18-6.64,16-4.31,26.9l2.89,9.13,8.28,20.1.45,3.32c1.9,4.84.88,11.76.71,17.34-.2,7.23,1.84,15.37-.65,19.62-7.26,5-3.26-1-13.58-1.3-2.75,3.45-2.67,4.3-5.59,7.51-1.53,2.72-.28,1.84-3.17,2.52l-.71-1.42.74,6.86c81.15,0,171.32-.22,235.24-.39l.43-10.69c-4.37-3-3-5.76-8.31-4-7.59,2.41-2.43,1.89-3.65,4.08l-2.3,4.05c-2,1.84-2.41,2.16-4.56,1.16-6.86-3.17-1.19-1.44-1.17-2.75.12-3.51,2.36-1.33.34-8.61-8.13-3-7.51.68-14.54,1-.28-16.76,5.36-12.28-11-11.68l1.62-14.86c3.6-9.55,10-20.15,9.89-30.38-4.76-9.84-10.43-9.36-14.68-20.7-2-5.47-2.18-9-3.4-15-1.42-7.06-3-6.75-5.27-12.27l.08-5.47,7.06-16.84.17-8.19a136.26,136.26,0,0,1-10-37.42c3.43-7.46,3.83-11.25,8.68-16.75,6.8.08,7.2,1.39,11.19,5.27,5.39,5.21,5.27,2.32,7.29,10.54,4.42,4.91,5.67,16.1,17.37,14.35,9.53-1.45,12-10.86,11-21.18l-1.93-7.06c-4.5-10-11.36-28.29-7.39-40.5l-.15-2.67c-2.58-14.28-14.2-18.51-2.77-29.53l1.19-2.87,1.58-11.45c-10.71,3.6-3.14,7.91-18,7.37-19.31-.71-10.41-4.62-19.68-8.7-6.2,15.19-5.72,6.07-18,13.58-4.64,2.86-12.38,11.48-18,12.36-15.37,2.38-19.31-28.72-18.91-41.16-6.35-13.21,8.59-17.07-29.25-32.06,3.23-11.17,2.66,3.23,6.49-23.45,8-1.53,12.16-2,13.58-9-6.24-2.89-5.76,1.27-14.35,2-1.75-7.06-.9-10.15-6.63-14.83-9.24-1.76-28.8,2.18-20.24,14-10.23-.85-15.36,1.14-14.94,11.62,9.19,3.77,11.74-7,10.35,5.64,1.67,4.2-1.42,2.24,3.06,5.93l3.88,4.62c-9.72,13.32.17,3.17-14.71,14.09-7.91,5.81-5.64,16.66-4.7,26.3Z" transform="translate(0 -19.67)"/><path class="cls-5" d="M1741.68,823.86l.26,6.52c-21.46-.06-38.07-.11-46.29-.11-33.48,0-69.82,1.33-102.93-.12-1.93-4.48,2.24-.48-5.53-8.73V818.7c8.17-3.49,4.45-2.18,4.11-8.3,3.94-1.73,3.92-.54,6-1.14,2.29-.68,1.44-1.7,4.62-2.78l4.42,11.88c4.05-2.44,0-3.91,10.29-1.08,3.65,1,.56-.36,3.46.17,2,.4,0,.4,2.32,1.36.85-6.63,3.71-3.94,8-6.06l2.16-1.5c1.78-1.19,1.7-.74,3.43-2.19,0,0-4.57-10.31,5.64-6l.76-2.58c1.25-.9.57-.56,2.7-1l3,4-.14,2.69c2,1,1.45.63,2.67,2.1,3.91-.23,4-1.79,8.81-.74,3.88.88,3.88,1.14,6.61-1.16,3.09-.31,1.78-1.22,4.39.71.79,2.32.54,1.44,2,3.17.7.85,1.41,1.7,2.12,2.58,3.54-1.5,4-.82,6.52-1.9l2.61-.65.45-19.13-1.78-20.55c-2.16-1-2.53-.26-4.14-2.64,2.27-7.11,1.22-7.06-4.59-9.15l-2.75,5.18c-6,.31-.71-.37-5.33-.73l-1.34,1.33c-2.35-.17-3.28-.65-5.24-.46-2.86.29-1.42.8-4.56,1.22l-.85-3.34-.43-2.61-6.15-.34c0-.14-.51-2.27-.54-2.35l-.65-1.14c-.14-.22-.6-.76-.71-1l-.59-1.16c-2.47-4.17.9-.45-4.31-3.46.79-4.22,1.64-3.2-.63-6.83-2.83-4.42,1.08-2.66-2.89-4.79l-4.62-1.9c.57-3.12.74-3.91,3-5.84l-2.38-2.3c-.14-.14-.31-.34-.43-.48-3.8-4.45-2.66-4.39-3.54-9.69-.57-3.46-.71-2.35.57-6,8.19.39.11,3.11,7,.31,3.29-1.33,2.24-1.39,6,.73-2.3-7.45,0-4.08.45-8.75a1.56,1.56,0,0,1,.2-.63l3.09-.71,3.65,4.31c2.1-1.76,2.27-2.35,5.08-3.29a7.25,7.25,0,0,1,.76-.22l10.89.71c3.37,1.67,1.81,1.75,2.64,3.43a8.89,8.89,0,0,1,1.36-2.7c1.53-2.41.51.23,1.5-2.32,1.1-2.81,0-3.18-1.19-4.45-4.14-4.65-1.84-2.61-1.82-5.36,0-2.55-1.07-.54-2.66-5.47,5.07-1.73,3.2-1.22,3.94-2.24,1.27-1.81-.14-1.11,1.84-3.49,2.35.94,2,1.25,4.48,2.7l2.52-2.24,2.81.31c.57-3.49.25-2.61,2-4.54,4.34,1.73-.34-1,8.59,2.55l5,.68-1.16,5.42,5.78-.17-.42,5.58c3.54.63,4.76-.42,9.29,1,.23.06.46.17.68.23l2,.71a4,4,0,0,1,.63.28c2.24,1.28,1.58.91,2.44,2.87-2.64,4.08-3.94-.12-3,6.52l.25,2.6-6.88-1.13-.63,4.34c2.61-.09,1.39-.8,3.21-1,3.65-.39,3.28,1.39,8,1.51,3.2.08-.46-.94,3.17.08s-1,1.19,2.84.94c.65-.06,6.06-2.33,11.14,1.33.17,5.36-.09-.48-.77,2.86a14.61,14.61,0,0,0-.37,4.28c-2.77-.45-4.62-1.39-6.6,2.55l-.48,1.28s-.37,3.29-.37,3.32c2.61,1.36,1.5-1.11,2.8,1.33.74,1.42.06,0,.37,1.64l.29,2c2.43-2.55,2.6-3,6.69-3.77l1,4c-1.87,1.78-1.22,2-1.9,2.8l-1.7,1.53c-.88.74-.68.09-1.56,1.34-2,2-.43.79-3.43,2.18l.42,4.87c.54,3.38,2.13,3.6-2.24,4.11s.49.06-3.2-.76c-3.12-.71-2.29.93-5.61-1.16a4.09,4.09,0,0,1-.51-.4l-2-2.35,2.89-3.43c1.3-1.45.59.31.56-1.48l-1.5-4.82c-3,.83-4.62,1.59-5.92,3.6-2.78,2.13-5.73,4.4-5.7,7.37.09,5,4,2.53,7.71,5.5-.25,3.66.09,1.56-1.13,3.75l-1.19,1.64c-7.06,11-6.78,3.4-8.79,3.71-1.25.2-.26,1.7-.74,4.34-5.81.4-2.55-1.25-5.47,1.9-2,2.18-1.47,1.64-2,5.44-3.37.17-2.38,1.16-6.38,1.67l.51,18.74c-.28,4-2.38,16.89-.68,19.33,3.18,4.51,3.32-.62,5.7-1.58s3,1.81,4.87,3.31c2,2.52.15.06,1.85,1.48,4.08,3.37,3.6,2.86,2.58,8.64l11.73,1.42c1.13.48,1.11,1.16,2.33,2.29,1.81-1.47,3.68-4.5,5.21-5.86,3.15-1.17,1.67,1.27,9.38,2.32l4.6,1.25c2.55,1,0-.28,1.84.91a24.4,24.4,0,0,0,1.9,1.58l1.87-3.37,0,0Zm-47.11-68.31c-3.32-2.95-1.7-.8-2.64.34Zm-12.08-2.78a8,8,0,0,0-3.6-1.9c-5.75-.34-2.15.17-3.71,1.87.48,1.87,1.25,2,2,4.93,3.89-1.36,1.48.71,5.93-.93Zm4,1.07c2.1-4,1.08-9.49.94-14.11-2,1.42-1.14-.51-2.18,2.49C1684.31,744.86,1685.1,751.27,1686.46,753.84Zm7.34-8.73c.43-3-.9-2.86-3.11-3.77l-.85,7.29c1.3-.48,3.54-.77,3.94-3.52Zm5.33-6.71c-1.61,2.21-1.1,1.19-1.27,6.49,3.48-.48,4.73-1.42,6-3.94-3.32.85-2.72,1.95-3,1.47-.08-.2-.36.28-.56.43l-1.14-4.43Zm-48.5,2.46c1.53-.73.91-.08,2.33-1.44a10.81,10.81,0,0,0,1.78-2.55l-5.64,0,1.51,4Zm-9-2.07c2.33-.62,1.3,1.51,2.38-2.49C1639.81,736.55,1641.53,735.65,1641.59,738.79Zm14.54.26c3.09-1,2.38-1.28,4.91-2.5-.23-2.26-2.13-2-3-1.24a22.5,22.5,0,0,0-1.9,3.74Zm24.58-6.15-.45-1.65c-1.76-4,2.43,1.59-1.14-1.1-2.07,1.78-2.07-.23-1.33,3.23s1.73,4.76,5.07,5.55C1682.52,735.87,1682.55,734.85,1680.71,732.9Zm23.75-1.36a62.9,62.9,0,0,1,2.84,6.15c2.55-1.65,8.47-4.76,9.92-8-2.1-1.56-1.28.09-3.8-2.44-2.89,2.47-3.94,3.72-9,4.28ZM1659,728.81l-1,3.49,4.11,1.82,0-3.12,2.4-.37c2.56,1.44.54.31,4.51.31,3.06,0,2.92,0,4.62,1.42-1.61,2.92-.25,1.9-3.29,4.34,3.21,1.3,4.37,1.64,7.71.28l-2.63-4.45c-2.38-5.76-9.7-7.94-18.46-8.59.54,4.53-.51,2.95,2,4.93Zm24.46,5.53a19.93,19.93,0,0,0,.82,3.15c.94,2,.43.65,1.31,1.44,2.26-3.09,1.39-.73,1.24-4.56a27.05,27.05,0,0,0-1.1-6.69c-1.62-4.48-1.7-2.95-2.89-3.12-.34.48-1.68-1.64-.32,2.67C1684.37,733.12,1682.13,728.84,1683.43,734.34Zm26.9-7.4c-1.56-.76-1.9-1.78-6.52,2C1708.49,729.35,1707.72,729.78,1710.33,726.94Zm-39.68-2c-1.62-5.78-3-2-10-8l-1.56,5.16Zm30.24-.26c2,.83,4.88,2.19,7.68-1.75l-3.6-1.56-.2-6.64c-1.16,1.31-.93,1.9-2.8,2.3-3,.65,1.7-.45-1.87-.06l-9,3.23-4.19.51c3.4,6.67,1.84,3.32,4.17,5.28-2.73,3.26-2.56,4.36-1.65,9.24,3-1.08,2.75-1.62,5.27-2.92-.71-2.24-3.28-4.51.23-6.12l6-1.54Zm-43.71-2.43c-4.68-2-2.44-3.32-6.32-3.52l2.81,3.26C1657.63,725.07,1656.81,722.49,1657.18,722.3Zm10.26-2.3c-1-4-.08-3-3.91-3.63C1665,718.92,1664.21,718.3,1667.44,720Zm1.42-5.07a12.06,12.06,0,0,0-.71-3.63c-1.7-3.38.11-.63-1.93-1.68a4.93,4.93,0,0,0,.51,2.9C1668.26,716.71,1666.73,714.07,1668.86,714.93Z" transform="translate(0 -19.67)"/><path class="cls-5" d="M107.66,632.49c4.39,1.51,2.89,2.33,6-.42l.65,5.64-5,2.55c-1.39-3.2.71-2.83-1.67-7.77Zm88.18,229-11.31-30.33c-.51-.18-1.19-.43-2-.8l-9.15-3.17c-4.4-1.62-4.11-.57-6.15,1.64-3,2.84-1.51,3.12-4.79,5.41-1.85-2.23-1.28-1.58-2.16-4.3-5,2.24-4.36,1.5-6.49.14l-9-.68c-.2-.17-.51-.91-.63-.68s-.56-.68-1.3-1.48c-4-4.36-3.49-2.55-3.71-7.76l-2.41-3.6c-7.63-.88-3.8,2.94-7.09,3.57l-1.13-1.79a7.45,7.45,0,0,1-.4-1l0-5.76c-.14-7.79-5.81-6.94-5.27-16-2.21-3.15-1.31-10.29-1.16-14.74.22-7.63.53-16.78,1.19-24.26,1.07-12.14,2.58-7.37-1.93-19.28-.62-3.2-2.1-8.79-1.48-12.05,1.25-6.63,2.24.09,2.07-8.73-.14-7.74,3.6-14.09,5.64-20.78h0l2-1.47c1.5-3.8,6.35-11,8.48-13.35,3-3.35,9.92-5.36,15.47-6.92l13.55-13.8c10-9,13.5-4.17,21.94-7.4a1.67,1.67,0,0,1,.17.82,2.75,2.75,0,0,0,.2.82l.57,1.62a8.09,8.09,0,0,0,.42.76c3.75,5.48,2.16-1.5,5.7,6.78,5.39-1.45,2.72-1.39,8.53-.54,1.62-6.26,2.95-6.46,9.95-7.4.65-5.89-.37-3.8,3.83-6.57-3.71-10.32.25-2.72-2.18-8.28-9.7.2-9,4.65-14.52,7.94l-.76-7c-6.32.12-6.92,2-9.55,1.08-1.05-3.66,3.14-3.2,5.44-4.9.42-12.67-.74-2.87,2.83-10.32l2.24-3.49c2.89-.11,13.72,4.23,7.54-8.19,5.27-2.27,3.83-.34,4.59-5.33,0,0-2.26-1.16-2.35-1.22-3.85-1.59,1.08.43-2.72-.88-4-1.39-.71,2-3.63-1.7-1.3,0-4.51-.17-5.61-.11-5.53.31-7.23,1.1-10.38,3.8-2.4-3.77-2.4-4.28-5-6.58-3.63.79-3.18.65-6,3.43-.12.11-.48.82-.57.62s-.34.46-.54.63l-4.87-3.49c-.74-.59-1.36-3.8-8.17-2.18-3.88.93-2.43,2-7.28,3.46-1.5-19.28,19.1,1.41,15.62-13.78,0-.17-.14-.51-.17-.68-1.19-4.76.08-1.33-2.5-6.15,3.26-.57,5.36-2.18,7.77-3.37l-.74-5c-5-.88-1.73,1.33-4.36-3.75-5.59,0-3.46.8-7.4-.42a8.83,8.83,0,0,1-.82-.37l-10.89-1.47c-5.3-.37,2,2.07-5-.37-2.89-6.41,3.29-7.12-.68-11-2-2-7.48-.4-8.84.28-1.19-6.37.17-4.22,1.24-9.55-5.35-3.74-5.41-2-11-.59l-2.72-5.64c-18.88,1.53-5.16.34-14-2A37.07,37.07,0,0,0,108,551.93c-5.81-4-4.48.6-10.52,3.66-5.44-3-2.83-5.33-9.49-4.45-2.24,3-2.53,5.33-2.24,9.41-4.34-.42-3.55-1.3-6.92,1-.57,3.57-.25,4.28,1.39,6.38,2.32,3,.85.88,4.56,3.12a19.31,19.31,0,0,0-4.36,4.76A64.5,64.5,0,0,0,85.66,583c2.38,2.69,4.37,3.4,4.25,7-.17,5-2.06,1.9-5.78,9.27L81.72,603c-1.7,2.07-.22,4.73,1.19,11.65-2.92-.46-2.63-.26-3.91-4.85-.91-3.23-1-2.27-2.27-5.1,4.91-3.23,3.58.68,6.38-5.44-2.32-5.62-.31-2.33-3.32-4.31l-14.71-2.78c-5.5.11-10.63,2.32-13.74,3.4-3.6,1.25-1.17,1.25-4.74,4.93-3.54-2.29-1.22-1.64-4.22-4.84l-5.25-4.48a15.6,15.6,0,0,0-4.22,1.92c-5.16,3.66.34.63-2.58,5.59l-2.49,2.69c-.12-.23-.57.4-1.08.8l3.68,8.61c-4.81-1.61-4.39-3.51-8.87-2-.31.11-3.37,2-3.8,2.26a21.43,21.43,0,0,0-1.9,1.59l-1.19,1.05c-4.76-5.19-4.9-5-7.62-4-6.41,2.21.57,2.35-4.2,5.72V619c4.14,4.28,2.07,4.59,2.07,4.62-1.33,9.64,2.38,2,1.16,13.35,10.15,0,.37.91,8.11,6.1,1.5,1,0-.8,3.18,1.67l-7,10.35c1.85,2,2.39,3.26,4.68,6,10.26-2.5.17-2.36,9.55,1.64,2.22-3.86,4-3.88,7.83-6.66,1.27.76,5.53,4.48,9.47,4.22l9.46-5.13c3.86,2.18,2.78,2.47,5.64,4.51A10.14,10.14,0,0,0,60,657l1.25-2.33.39-.82A6.87,6.87,0,0,1,62,653c8.73,1.84,5.93,6.18,13.67,7.77,5.21,1.07,3.23-1.08,8.13.17,3.74,1,2.58,2,6.72,4.11l4.34,2.29c7.23,3.18,17.26,18.88,18.17,31.13h0c.65,13.21-2.72,21.91-1.28,36.87,5.33,11.09,3.86,33.57,3.54,46.69l-.62,14.66-1.44,28.94-4,.11c-1.38-3.54-.28-4.28-2.09-7.62-5.87,0-3.32,1.07-8.53,3.68-5.67-4.25-6.61-3.74-7.72-4.51-3.23-2.26-1.7-2.58-3.68-6.71l-1.9,1c-.25.11-.59.31-.91.42l-1.67.63c-3.06.71-1.53-.6-8.9.76l-2.69,0c-4.25-1.51,1.67-1.76-4.14-1.85-6.27-.11-5.13,7.43-4.82,11.54-5.19-.6-4.17.17-8.56,1.42-11.91,3.37-8.9,6.4-10.77,8.84-3.35,4.28-1.11-1-3.63,3.8,2.27,1.19,78.69,24.41,156.61,24.46ZM117.3,693v0c-3.43-9.39-6.52-25.12,1.9-29.74l-.32,29C117.75,693.16,118.57,693.41,117.3,693Zm5.5-30.82c.56-1.55.7-3.2,2.41-3.88,3.54-1.44,3,2.72,3.23,3.46l-5.64.45Zm-15.28-12.78.28,1.7.11,2c3.46,5.27,4.57,15,3.21,22.17l-8.82-15.65c-.08-.45-.45-.45-.68-.68l-.88-4s-1.1-4.4-1.1-4.4c-.31-4.5-.48,3,0-2.18l.68-2c2.24-.51.51-.43,1.67-1.82l1.56,2.19,3.31.48.46,1.76.14.51Zm-6,10.32,4.42,14c-3.49-2.44-2.61-2.81-5.44-6-2.24-2.5-2.5-2.1-4.91-4.34L90.4,662l-4.79-5.44L91,655.34l.14-9.13c-9.95-3-11.87,1.7-15.13.74-2.16-.65,1.5-1.16-4.65-2l-2,6.13c-.37,1.9.23.65-.31,1.59-4.88-2.75-5-2.56-9.1-5.9,0-6.52-.08,1.76.79-3.2.4-2.33,1.28.31-.25-3.38-1.47-3.51-2.35-1.44-2.78-7.11,7.54-2,22.37.34,27.84,4.53s13,8.51,13.77,19.17c1.45,1.16,1.11-1.68,2.21,2.86Zm47,11.68L134.33,677c-6.6,4-5.47,10-9.75,9.44-2.72-4.71.34-15.62,3.57-19.28,9.3,5.25,2.44,4.65,8.59,4.65,4.14,0,4.62-3,3.57-8.28.26.26.54.34.63.88l2.58,5.39c7.37-.77-5.05,2.07,2-.4l6.32-3.74-3.34,5.73ZM132.21,650.3c-4.06,1.64-1.51.65-5,2.94s-.37.8-3.94,2.3c-.68-7.31-1.39-8.16.28-15.59,2.64-1.16,3.94-3.91,4.34-7.65l-4.22,3.31-5.9-10.17c2.84-.34,9.61-.29,10.94-.71,3.83-1.28-2.49,1,1.28-.71,4.08-1.82,3.17.88,5.55-.09,3.52-3.31,1.59-2.52,6.41-4.73,6.86-3.15.85-.17,7.51.65l2.1-7.11c6,7.08,2,8.39,1.27,11.65.15,6.69,1.45,4.67,8,5.55a8.13,8.13,0,0,1-7.85,6l-7.17-1.84c-4.54-.68-3,2-8,2.64-3.82.45,2.78-3-8.73,2.78,1.14,4.59,2.44,5.1,5.11,7.37-1.42,2.72,0,0-1.22,2.32l-.68,1.08Zm-15.56-10.61c1.24,10.32,4,15.68-1,23.25-2.89-3.09-1.73-3.69-4.45-9.61-1.81-4-1.5-5.33-.85-9.84,2.47-2.24,2.35-4.42,6.24-3.82Zm36.11,8.56c2.41-1.84,2.83-1,5.87-1.7,3.43-.85,10.09-5,11.73-8.27a7.83,7.83,0,0,1,.71.88c5.24,5.55,3.32,1.81,6.83,3.17-.17,8.53-8.67,9-20.29,17.55C158.37,652.62,154,650.13,152.76,648.25Zm27.92.69c2.92-7.6,2.83-6.89,7.74-8.88C186.41,644.43,184.68,647.38,180.68,648.94Zm-29-7.8c5.5-2.81,9.27-5.3,12.78-2.35l-3,3.57c-5.5.34-7.32.28-9.81-1.25Zm-44.19,8.19c-1.76-6.35,1.19-5,2.89-5.84Zm-43.2-20.69c.34-10.29,6.09-5.93,10.74-3.06,5,3.09,10.66,2.78,11.57,9.27Zm-17.18-5.33c1.3-1.22-.4-2.86,3.57-.91s-2.52.31,4.06,3.38c3.85,1.78,5,.93,8.16,4.08l-8,.79c-.74-1.08-.68-.2-1.28-2.69a16,16,0,0,1-.22-2.64c-3.83-.31-3.69.31-6.21-2Zm22.68-2.07c-4.68-.59-2.95.65-3.69-1.56C66.5,619.51,64.88,614.24,69.82,621.24ZM80.33,625a13.17,13.17,0,0,1-9-7.62l7,.39Z" transform="translate(0 -19.67)"/><path class="cls-5" d="M827.77,712.6l1.84,5.73c.79,3.23.91,15.73,1.11,20,1.07,2.61.45,22.28.28,27.75-4.25-.06-8.14-1.56-8.59-6.24-1.76-7.25-.68-14.91-3.15-22.59-.82-2.52-1.5-2.07-2.15-4.79l-2-16.78c-2.78-2.58-4.31-6-10.49-4.34-5,1.31-6.38,3.46-7.2,8.51.34,5.67,0,10.26,1.59,15.44s4,7,3.4,13.72c.45.63.37.4.57,1.62l0,5.1c-.06,2.55-.2,4.93-.06,7.49.51,8.3,2.47,10.88,6.77,15.78,1.79,2,2.24,1.59,4.54,2.87,3.6,2,5.64,3.29,7.91,6.43,5.27,7.34,8.25,2.58,7.28,22.51-.31,6.63-1.07,15.25-2.15,22.34h32.06c-.88-4.71-2.16-13.92-1.39-16.05,1.47-1.67,9-1.9,15.79-7.68,5.27-4.51,13.41-10,15-19.3a248.88,248.88,0,0,0,3.52-31.24c-.06-4.28,1-10.63,1-14.6,0-1.87-.6-5-1.53-6.38-1.16-1.73-3.18-1.87-4.28-2.72-7.74-.59-11.74.31-12.87,7.46-.91,5.72-.88,13-1.16,18.9-.12,6.07-1.36,13.1-2,19.36-.42,4.2-.71,8.65-3.82,11.54a23.58,23.58,0,0,1-2.81,2.21c-2.47.2-7.37.51-9-.59l-1.33-30.16c0-19.28-2.49-19.68,9.39-23.93,5.89-2.1,13.49-8.64,16.78-12.92l2-2.39c.09-1.44,1.56-4.16,2.07-6.74s1.11-4.4,1.67-6.92c.91-4,1.33-11.62,2.81-14.6.42-4.9-.06-12.27-1.62-16.27s-7.45-8-11.45-4.08c-5,4.93-8.59,18.85-9,26.53-.14,3-2.16,11-3.37,13.16-1.9,3.26-8.54,6.12-9.9,5.83-1-2.26-1.13-12.58-.93-16l-1.14-2.07c-1.3-2.61-5.16-7.14-6.89-9.7-2.06-3.09-1.58-12.38-1.58-17.12,0-19.47-.71-22.48-16.25-22.11a6.76,6.76,0,0,0-6.29,3.72c-3.43,5.61-2.1,18.73-2.1,25.85,0,8.87-.11,8.67,2.92,15.9,1.45,3.43,5.9,9.55,6.16,12.59Z" transform="translate(0 -19.67)"/></svg>