<?xml version="1.0" encoding="utf-8"?>
<!-- Generator: Adobe Illustrator 26.0.0, SVG Export Plug-In . SVG Version: 6.00 Build 0)  -->
<svg version="1.1" xmlns="http://www.w3.org/2000/svg" xmlns:xlink="http://www.w3.org/1999/xlink" x="0px" y="0px"
	 viewBox="0 0 2040 1152" style="enable-background:new 0 0 2040 1152;" xml:space="preserve">
<style type="text/css">
	.st0{clip-path:url(#SVGID_00000148629511638573495210000006844098567049243055_);}
	.st1{fill-rule:evenodd;clip-rule:evenodd;fill:#FAC847;}
	.st2{fill:none;}
	.st3{clip-path:url(#SVGID_00000168075498377592290680000004690105337936725929_);}
	.st4{clip-path:url(#SVGID_00000031901094878416647240000003617500799247258765_);}
	.st5{fill-rule:evenodd;clip-rule:evenodd;fill:#FAC847;fill-opacity:0.502;}
	.st6{fill-rule:evenodd;clip-rule:evenodd;fill:#290214;}
</style>
<g id="Layer_1">
	<g>
		<defs>
			<circle id="SVGID_1_" cx="1020" cy="576" r="549"/>
		</defs>
		<clipPath id="SVGID_00000005977858693201476970000001464061442623153309_">
			<use xlink:href="#SVGID_1_"  style="overflow:visible;"/>
		</clipPath>
		<g style="clip-path:url(#SVGID_00000005977858693201476970000001464061442623153309_);">
			<g id="_2374344596224">
				<g>
					<g>
						<path class="st1" d="M1530.5,343.2c-2.4-17.8-45.1-99.2-55.5-108.9c-22.3-20.8-51.6,6.9-69.5-5.5c8.2-5.1,16-9,24.7-13
							c3.1-1.4,9.9-4.2,12.5-6.1c6-4.5,4.5-1.9,6.8-9.1c-18.1-7.8-104.5,15.1-129.1,20.5c-77.7,17-853.6,279.3-883.5,345.8
							C842.1,433.6,1113.8,343.3,1530.5,343.2L1530.5,343.2z"/>
						<path class="st1" d="M1156.9,420.9c-10.5,1.7-21.1,2.5-29.1,3.7l-0.6,0.1c6.4-7.2,2-9.6-26.7-1.8
							C924.9,470.2,785,486.2,636.7,524c-21.7,5.6-199.1,58.2-192.2,77.6c-15.1,3.8-5.1,64.6,12.5,77.6l120.9-23l0,0
							c21.1-4,40.2-9,66.2-5.7c-2.2,11.1-15.6,23-26.2,22.6c12.7,0.7,95.3-20.3,128.4-29.4c13.7,3.7,459.2-114.3,483.1-120.6
							c54.7-13.5,346-57.8,349.7-64.8c-18.1-45.3-23.5-56.4-29.7-75.9c-5.5-17.3-33.5-19-89.2-8.8
							C1375,385.5,1184.4,451.2,1156.9,420.9L1156.9,420.9z"/>
						<path class="st1" d="M1313.7,83.5c-188.4-32.1-366.6,8.5-399.5,0.2c110.4-14.9,177.9-43,321.5-41.9
							C898.4-33.8,676.1,94.3,532.4,272.7c-3.6,1.6,167-85.4,255.6-103.7c120.8-24.9,272.4-30.7,392.1-49.6
							C1236,110.6,1247,101.8,1313.7,83.5z"/>
						<path class="st1" d="M1192.8,235.9c21.2-1.1,200.9-60.5,221.3-70.3c-4.3-10.5-23.8-25-31.6-32.2c-17.1-15.8-22.3-16.4-49-10.7
							c-36.7,7.7-115.9,32.6-153.4,39c-143.4,23.7-242.2,27.7-385.8,50.7c-69.2,15.6-225.3,70-293.1,118.9c0,0-30.2,72.1-46.9,130.8
							C690,411.8,961.6,310.5,1192.8,235.9L1192.8,235.9z"/>
						<path class="st1" d="M763.3,659.6c-194.5,62.5-183.8,82.7-179.5,94c6.8,18.1,881.6-148.7,994.5-187
							c25.6-8.7,20.7-46.9-6.9-48.7c-1.6-8.9-313.3,83.8-419.8,83.9c58.3-29,428-110.3,427.7-114.5
							C1618.3,455.6,1132.5,567.4,763.3,659.6z"/>
						<path class="st1" d="M847.7,749.5l-248,20.5l757,19c168.2-114.5,190.4,27.9,212.8-133.9
							C1327.8,696.9,1072.1,733.5,847.7,749.5z"/>
					</g>
					<g>
						<path class="st1" d="M501.3,801.4c2.4,17.8,45.1,99.2,55.5,108.9c22.3,20.8,51.6-6.9,69.5,5.5c-8.2,5.1-16,9-24.7,13
							c-3.1,1.4-9.9,4.2-12.5,6.1c-6,4.5-4.5,1.9-6.8,9.1c18.1,7.8,104.5-15.1,129.1-20.5c77.7-17,853.6-279.3,883.5-345.8
							C1189.7,711,918,801.4,501.3,801.4L501.3,801.4z"/>
						<path class="st1" d="M874.9,723.7c10.5-1.7,21.1-2.5,29.1-3.7l0.6-0.1c-6.4,7.2-2,9.6,26.7,1.8
							c175.6-47.4,315.6-63.3,463.9-101.2c21.7-5.6,199.1-58.2,192.2-77.6c15.1-3.8,5.1-64.6-12.5-77.6l-120.9,23l0,0
							c-21.1,4-40.2,9-66.2,5.7c2.2-11.1,15.6-23,26.2-22.6c-12.7-0.7-95.3,20.3-128.4,29.4c-13.7-3.7-459.2,114.3-483.1,120.6
							c-54.7,13.5-346,57.8-349.7,64.8c18.1,45.3,23.5,56.4,29.7,75.9c5.5,17.3,33.5,19,89.2,8.8
							C656.8,759.1,847.4,693.4,874.9,723.7L874.9,723.7z"/>
						<path class="st1" d="M718.2,1061.1c188.4,32.1,366.6-8.5,399.5-0.2c-110.4,14.9-177.9,43-321.5,41.9
							c337.2,75.5,559.5-52.6,703.3-230.9c3.6-1.6-167,85.4-255.6,103.7c-120.8,24.9-272.4,30.7-392.1,49.6
							C795.8,1034,784.8,1042.8,718.2,1061.1z"/>
						<path class="st1" d="M839,908.7c-21.2,1.1-200.9,60.5-221.3,70.3c4.3,10.5,23.8,25,31.6,32.2c17.1,15.8,22.3,16.4,49,10.7
							c36.7-7.7,115.9-32.6,153.4-39c143.4-23.7,242.2-27.7,385.8-50.7c69.2-15.6,225.3-70,293.1-118.9c0,0,30.2-72.1,46.9-130.8
							C1341.8,732.8,1070.2,834.1,839,908.7L839,908.7z"/>
						<path class="st1" d="M1268.5,485.1c194.5-62.5,183.8-82.7,179.5-94c-6.8-18.1-881.6,148.7-994.5,187
							c-25.6,8.7-20.7,46.9,6.9,48.7c1.6,8.9,313.3-83.8,419.8-83.9c-58.3,29-428,110.3-427.7,114.5
							C413.5,689,899.3,577.2,1268.5,485.1z"/>
						<path class="st1" d="M1184.1,395.1l248-20.5l-757-19C506.9,470,484.8,327.7,462.4,489.5C704,447.7,959.7,411.1,1184.1,395.1z"
							/>
					</g>
				</g>
			</g>
		</g>
	</g>
	<path class="st2" d="M1020,27c303.2,0,549,245.8,549,549s-245.8,549-549,549S471,879.2,471,576S716.8,27,1020,27z"/>
	<g>
		<defs>
			<circle id="SVGID_00000100363569964257722340000014404503632764371848_" cx="1020" cy="576" r="549"/>
		</defs>
		<clipPath id="SVGID_00000041267885333032078700000004024175010281765014_">
			<use xlink:href="#SVGID_00000100363569964257722340000014404503632764371848_"  style="overflow:visible;"/>
		</clipPath>
		<g style="clip-path:url(#SVGID_00000041267885333032078700000004024175010281765014_);">
			<polygon class="st2" points="471,27 1569,27 1569,1125 471,1125 			"/>
		</g>
	</g>
	<g>
		<defs>
			<circle id="SVGID_00000129892530479979600130000011859397808043608746_" cx="1020" cy="576" r="549"/>
		</defs>
		<clipPath id="SVGID_00000118394180774013780290000011949501383659097509_">
			<use xlink:href="#SVGID_00000129892530479979600130000011859397808043608746_"  style="overflow:visible;"/>
		</clipPath>
		<g style="clip-path:url(#SVGID_00000118394180774013780290000011949501383659097509_);">
			<g id="_2374344588960">
				<g>
					<g>
						<path id="_x31_" class="st5" d="M1530.5,343.2c-2.4-17.8-45.1-99.2-55.5-108.9c-22.3-20.8-51.6,6.9-69.5-5.5
							c8.2-5.1,16-9,24.7-13c3.1-1.4,9.9-4.2,12.5-6.1c6-4.5,4.5-1.9,6.8-9.1c-18.1-7.8-104.5,15.1-129.1,20.5
							c-77.7,17-853.6,279.3-883.5,345.8C842.1,433.6,1113.8,343.3,1530.5,343.2L1530.5,343.2z"/>
						<path class="st5" d="M1156.9,420.9c-10.5,1.7-21.1,2.5-29.1,3.7l-0.6,0.1c6.4-7.2,2-9.6-26.7-1.8
							C924.9,470.2,785,486.2,636.7,524c-21.7,5.6-199.1,58.2-192.2,77.6c-15.1,3.8-5.1,64.6,12.5,77.6l120.9-23l0,0
							c21.1-4,40.2-9,66.2-5.7c-2.2,11.1-15.6,23-26.2,22.6c12.7,0.7,95.3-20.3,128.4-29.4c13.7,3.7,459.2-114.3,483.1-120.5
							c54.7-13.5,346-57.8,349.7-64.8c-18.1-45.3-23.5-56.4-29.7-75.9c-5.5-17.3-33.5-19-89.2-8.8
							C1375,385.6,1184.4,451.2,1156.9,420.9z"/>
						<path class="st5" d="M1313.7,83.5c-188.4-32.1-366.6,8.5-399.5,0.2c110.4-14.9,177.9-43,321.5-41.9
							C898.4-33.8,676.1,94.3,532.4,272.7c-3.6,1.6,167-85.4,255.6-103.7c120.8-24.9,272.4-30.7,392.1-49.6
							C1236,110.6,1247,101.8,1313.7,83.5z"/>
						<path class="st5" d="M1192.8,235.9c21.2-1.1,200.9-60.5,221.3-70.3c-4.3-10.5-23.8-25-31.6-32.2c-17.1-15.8-22.3-16.4-49-10.7
							c-36.7,7.7-115.9,32.6-153.4,39c-143.4,23.7-242.2,27.7-385.8,50.7c-69.2,15.6-225.3,70-293.1,118.9c0,0-30.2,72.1-46.9,130.8
							C690,411.8,961.6,310.5,1192.8,235.9L1192.8,235.9z"/>
						<path class="st5" d="M763.3,659.6c-194.5,62.5-183.8,82.7-179.5,94c6.8,18.1,881.6-148.7,994.5-187
							c25.6-8.7,20.7-46.9-6.9-48.7c-1.6-8.9-313.3,83.8-419.8,83.9c58.3-29,428-110.3,427.7-114.5
							C1618.3,455.6,1132.5,567.4,763.3,659.6z"/>
						<path class="st5" d="M847.7,749.5l-248,20.5l757,19c168.2-114.5,190.4,27.9,212.8-133.9
							C1327.8,696.9,1072.1,733.5,847.7,749.5z"/>
					</g>
					<g>
						<path class="st5" d="M501.3,801.4c2.4,17.8,45.1,99.2,55.5,108.9c22.3,20.8,51.6-6.9,69.5,5.5c-8.2,5.1-16,9-24.7,13
							c-3.1,1.4-9.9,4.2-12.5,6.1c-6,4.5-4.5,1.9-6.8,9.1c18.1,7.8,104.5-15.1,129.1-20.5c77.7-17,853.6-279.3,883.5-345.8
							C1189.7,711,918,801.4,501.3,801.4L501.3,801.4z"/>
						<path class="st5" d="M874.9,723.7c10.5-1.7,21.1-2.5,29.1-3.7l0.6-0.1c-6.4,7.2-2,9.6,26.7,1.8
							c175.6-47.4,315.6-63.3,463.9-101.2c21.7-5.6,199.1-58.2,192.2-77.6c15.1-3.8,5.1-64.6-12.5-77.6l-120.9,23l0,0
							c-21.1,4-40.2,9-66.2,5.7c2.2-11.1,15.6-23,26.2-22.6c-12.7-0.7-95.3,20.3-128.4,29.4c-13.7-3.7-459.2,114.3-483.1,120.5
							c-54.7,13.5-346,57.8-349.7,64.8c18.1,45.3,23.5,56.4,29.7,75.9c5.5,17.3,33.5,19,89.2,8.8
							C656.8,759.1,847.4,693.4,874.9,723.7z"/>
						<path class="st5" d="M718.2,1061.1c188.4,32.1,366.6-8.5,399.5-0.2c-110.4,14.9-177.9,43-321.5,41.9
							c337.2,75.5,559.5-52.6,703.3-230.9c3.6-1.6-167,85.4-255.6,103.7c-120.8,24.9-272.4,30.7-392.1,49.6
							C795.8,1034,784.8,1042.8,718.2,1061.1z"/>
						<path class="st5" d="M839,908.7c-21.2,1.1-200.9,60.5-221.3,70.3c4.3,10.5,23.8,25,31.6,32.2c17.1,15.8,22.3,16.4,49,10.7
							c36.7-7.7,115.9-32.6,153.4-39c143.4-23.7,242.2-27.7,385.8-50.7c69.2-15.6,225.3-70,293.1-118.9c0,0,30.2-72.1,46.9-130.8
							C1341.8,732.8,1070.2,834.1,839,908.7L839,908.7z"/>
						<path class="st5" d="M1268.5,485.1c194.5-62.5,183.8-82.7,179.5-94c-6.8-18.1-881.6,148.7-994.5,187
							c-25.6,8.7-20.7,46.9,6.9,48.7c1.6,8.9,313.3-83.8,419.8-83.9c-58.3,29-428,110.3-427.7,114.5
							C413.5,689,899.3,577.2,1268.5,485.1z"/>
						<path class="st5" d="M1184.1,395.1l248-20.5l-757-19C506.9,470,484.8,327.7,462.4,489.5C704,447.7,959.7,411.1,1184.1,395.1z"
							/>
					</g>
				</g>
			</g>
		</g>
	</g>
	<path class="st2" d="M1020,27c303.2,0,549,245.8,549,549s-245.8,549-549,549S471,879.2,471,576S716.8,27,1020,27z"/>
	<path class="st6" d="M863.9,827.7c-9.5,0.3-20.7,2.1-29.8,1.6c-4.2-0.2-112.3-35.7-123.6-39.5c-11.1-3.7-14.3-5.6-28.4-4.6
		l-157.2,5.9c-13,1.3-53.2,0-61.5,3.8c-15.3,7-29.9,12.8-45.4,19.2c-30.7,12.6-60.8,26.4-92.1,38.8c-8.1,3.2-15.5,6.4-23.3,9.8
		c-10.4,4.6-14.4,1.7-26.1-0.2c-18.4-3.1-37.4-6.3-55.7-9.8c-55.3-10.4-111.6-19-166.7-29.4l-41.7-7.3C1,813.9,7.3,814.9,0,812.8
		V1152h2040V906.7l-4-13.2c-16.3-3.2-31.5-7.4-48.1-11.1c-15.9-3.5-31.7-7.4-47.3-11c-46.5-10.9-97.7-21.9-143.3-33.3
		c-26.4-6.6-22.9-6.2-50.4-7.6c-37.5-2-74.7-3.1-111.8-5.7l-55.9-2.9c-14.8-0.1-12.6-1.6-25.8,3.1l-107,39.6
		c-6.7,2.6-17.5,4-24.7,5.4l-73.4,13.9c-8.4,1.6-17.2,3.7-25.2,4.9c-6.3,0.9-15.6-5.6-21-8c-13.2-5.8-26.2-13.2-39.2-19.1l-0.9-24.3
		c2.5-2,5.2-2.1,7.5-3.3c8.8-4.6,14.2-11.3,15.6-21.3c0.7-5.1,3.2-27.1,1.7-31.2c-1.6-4.5-9-4.9-11.6-1.1c-2.2,3.3-1.7,9.9-2.2,14.5
		c-1.3,13.7,0.5,22.8-8.9,25.1l-3.5,0.2c0-7.1-0.9-14-1.1-20.8c-0.5-12,1.1-56-3.8-61.7c-1.7-10.1-11-17-23.1-15.8
		c-4.5,7.3,0.9,15.1,4.6,20.7c7.1,10.8,2.6,20.9,5.2,24.2c-2,10.8,1.7,26.9-0.5,36.3c-9-3.3-5.8-12.7-7.7-21.8
		c-2-9.4,0.1-17.3-10.2-19.2c-10.2,5.5-1.6,22.3-1.1,32.5c0.9,19,8.8,14.5,18.7,22.7l-0.7,35.9c-35.9,0.2-79.3,4.1-114.6,3.8
		c-6.4-0.1-78.3-24-89.8-27.7c-8.3-2.7-29.8-10.4-37-10.3c-22.4,0.2-62.4,5.1-83.4,5.3L863.9,827.7L863.9,827.7z"/>
	<path class="st6" d="M555.7,735l12.3-28.6l1.7-6l1.4-10.1l17.8,5c6.1,0.7,11.2,0.1,16.1-1.2l-0.6,4.5c0.9,9.6,4.8,17,7.5,25.3
		l6.5,42.4l-0.9,23.9c-3.2-0.5-4.3-1.4-6.4-1.8c-11.5-2.4-5.1,3.1-14.6-1.9c-3.7-1.9-2.9-1.7-6.8-3.1c-8.3,4.3,2,1.6-6.4,6.1
		c-2.9-5.8-6.5-3.5-12.4-3.9c-6.9-0.5-10.1,2-20.4,2.3c5.8-8,3-8.4,1.5-18.6C549,754.9,549.4,747.1,555.7,735L555.7,735z
		 M629.9,719.9c-1.8-13.6,1.2-23.9,10.4-29.5c8.7,1.4,10.3,5.6,14.8,10c4.1,4,9.3,7.8,12.1,12.1l8.9,9.2c4.9,3.9,6,3.4,7.7,11.7
		c1.1,9.6,0.9,20.6-4.1,26.8c-10.8,24.4-23-0.3-21.9,23.9c-5.8,1.9-4.8,2.8-8.4,6.2l-1.1-4.9c-0.1-0.2-0.2-0.8-0.4-1.1l-8.2-2
		c-5.8-1-5.8,1.2-8,5.2c-1.6-8.2-1.4-18.3,0.9-25.5C633.8,743,632.3,737.7,629.9,719.9L629.9,719.9z M544.2,709.3l-2.7,7.4
		c-2.9,9.3-4.3,12.1-4.3,23l4.2,30.2l1.9,16.6c-8.2-3.5-8.4-5.9-7.9-17.6c-0.1-9.4-4.3-16.5-6.7-24.7c-4.5-9.6-4.3-16.6,1.4-25.3
		l0.6-2.6c0.8-11.9-2-10.6,3.6-21.3c3-5.7,4.5-12.4,8-17.2C545.9,688,549.9,699.2,544.2,709.3L544.2,709.3z M559.7,497.8l0.9,6.2
		c0.5,6,1.3,12.3,1.7,18.1c0.5,8.1-1.5,10.7-1.7,18.1l6.9,4.6l-9,27.9c-7.1,2.4-11.2,2.4-18.5,5.6c-29.5,12.9-26.6-9.4-50.2,21.6
		l-0.4,11.2c3.2,0.9-0.8,1.7,2.6-1.2c1.2-1,1.2-1.8,2.7-3.3l-3.1,10.6l-0.5,15.4l2.4,17.9c-0.7,9.6-5.1,18.9-4.4,25.2l3.1,7.1
		c1.6-6.9,1.1-5.4,5.6-9.3c-5.2,9.7-6.2,10.7-4.5,23.8c4-1.3,3.8-2.8,6.8-7c-1.5,8.8-4.9,9.7-9.9,14.3c9.9,3.7,18.4-11.1,20.1-21.4
		c0.1,0.2,0.5-29,1.1-29.7c0.1-0.2,1.3-11.7,1.5-8c0.4,8.1-0.3,35.5-0.2,35.6c0.5,2,1.9,0.1,0.1,8.6c-2.2,10.2-6.6,16-4.3,26.9
		l2.9,9.1l8.3,20.1l0.5,3.3c1.9,4.8,0.9,11.8,0.7,17.3c-0.2,7.2,1.8,15.4-0.7,19.6c-7.3,5-3.3-1-13.6-1.3c-2.7,3.5-2.7,4.3-5.6,7.5
		c-1.5,2.7-0.3,1.8-3.2,2.5l-0.7-1.4l0.7,6.9c81.2,0,171.3-0.2,235.2-0.4l0.4-10.7c-4.4-3-2.9-5.8-8.3-4.1c-7.6,2.4-2.4,1.9-3.7,4.1
		l-2.3,4.1c-2,1.8-2.4,2.2-4.6,1.2c-6.9-3.2-1.2-1.4-1.2-2.7c0.1-3.5,2.4-1.3,0.3-8.6c-8.1-2.9-7.5,0.7-14.5,1
		c-0.3-16.8,5.4-12.3-11-11.7l1.6-14.9c3.6-9.6,10-20.2,9.9-30.4c-4.8-9.8-10.4-9.4-14.7-20.7c-2-5.5-2.2-9-3.4-15
		c-1.4-7.1-3-6.7-5.3-12.3l0.1-5.5l7.1-16.8l0.2-8.2c-5.3-12.9-8.3-23.8-10-37.4c3.4-7.5,3.8-11.3,8.7-16.8
		c6.8,0.1,7.2,1.4,11.2,5.3c5.4,5.2,5.3,2.3,7.3,10.5c4.4,4.9,5.7,16.1,17.4,14.3c9.5-1.4,12-10.9,11-21.2l-1.9-7.1
		c-4.5-10-11.4-28.3-7.4-40.5l-0.1-2.7c-2.6-14.3-14.2-18.5-2.8-29.5l1.2-2.9l1.6-11.5c-10.7,3.6-3.1,7.9-18,7.4
		c-19.3-0.7-10.4-4.6-19.7-8.7c-6.2,15.2-5.7,6.1-18,13.6c-4.6,2.9-12.4,11.5-18.1,12.4c-15.4,2.4-19.3-28.7-18.9-41.2
		c-6.3-13.2,8.6-17.1-29.3-32.1c3.2-11.2,2.7,3.2,6.5-23.4c8-1.5,12.2-2,13.6-9c-6.2-2.9-5.8,1.3-14.3,2c-1.8-7.1-0.9-10.1-6.6-14.8
		c-9.2-1.8-28.8,2.2-20.2,14c-10.2-0.9-15.4,1.1-14.9,11.6c9.2,3.8,11.7-7,10.3,5.6c1.7,4.2-1.4,2.2,3.1,5.9l3.9,4.6
		c-9.7,13.3,0.2,3.2-14.7,14.1C556.5,477.3,558.8,488.2,559.7,497.8L559.7,497.8z"/>
	<path class="st6" d="M1741.7,823.9l0.3,6.5c-21.5-0.1-38.1-0.1-46.3-0.1c-33.5,0-69.8,1.3-102.9-0.1c-1.9-4.5,2.2-0.5-5.5-8.7v-2.7
		c8.2-3.5,4.5-2.2,4.1-8.3c3.9-1.7,3.9-0.5,6-1.1c2.3-0.7,1.4-1.7,4.6-2.8l4.4,11.9c4.1-2.4,0-3.9,10.3-1.1c3.7,1,0.6-0.4,3.5,0.2
		c2,0.4,0,0.4,2.3,1.4c0.9-6.6,3.7-3.9,8-6.1l2.2-1.5c1.8-1.2,1.7-0.7,3.4-2.2c0,0-4.6-10.3,5.6-6l0.8-2.6c1.2-0.9,0.6-0.6,2.7-1
		l3,4l-0.1,2.7c2,1,1.4,0.6,2.7,2.1c3.9-0.2,4-1.8,8.8-0.7c3.9,0.9,3.9,1.1,6.6-1.2c3.1-0.3,1.8-1.2,4.4,0.7c0.8,2.3,0.5,1.4,2,3.2
		c0.7,0.9,1.4,1.7,2.1,2.6c3.5-1.5,4-0.8,6.5-1.9l2.6-0.7l0.5-19.1l-1.8-20.6c-2.2-1-2.5-0.3-4.1-2.6c2.3-7.1,1.2-7.1-4.6-9.2
		l-2.7,5.2c-6,0.3-0.7-0.4-5.3-0.7l-1.3,1.3c-2.4-0.2-3.3-0.7-5.2-0.5c-2.9,0.3-1.4,0.8-4.6,1.2l-0.9-3.3l-0.4-2.6l-6.2-0.3
		c0-0.1-0.5-2.3-0.5-2.4l-0.7-1.1c-0.1-0.2-0.6-0.8-0.7-1l-0.6-1.2c-2.5-4.2,0.9-0.5-4.3-3.5c0.8-4.2,1.6-3.2-0.6-6.8
		c-2.8-4.4,1.1-2.7-2.9-4.8l-4.6-1.9c0.6-3.1,0.7-3.9,3-5.8l-2.4-2.3c-0.1-0.1-0.3-0.3-0.4-0.5c-3.8-4.5-2.7-4.4-3.5-9.7
		c-0.6-3.5-0.7-2.4,0.6-6c8.2,0.4,0.1,3.1,7.1,0.3c3.3-1.3,2.2-1.4,6,0.7c-2.3-7.5,0-4.1,0.5-8.8c0-0.3,0.1-0.4,0.2-0.6l3.1-0.7
		l3.7,4.3c2.1-1.8,2.3-2.4,5.1-3.3c0.3-0.1,0.5-0.2,0.8-0.2l10.9,0.7c3.4,1.7,1.8,1.8,2.6,3.4c0.8-1.8,0.4-1.1,1.4-2.7
		c1.5-2.4,0.5,0.2,1.5-2.3c1.1-2.8,0-3.2-1.2-4.5c-4.1-4.6-1.8-2.6-1.8-5.4c0-2.6-1.1-0.5-2.7-5.5c5.1-1.7,3.2-1.2,3.9-2.2
		c1.3-1.8-0.1-1.1,1.8-3.5c2.4,0.9,2,1.2,4.5,2.7l2.5-2.2l2.8,0.3c0.6-3.5,0.3-2.6,2-4.5c4.3,1.7-0.3-1,8.6,2.6l5,0.7l-1.2,5.4
		l5.8-0.2l-0.4,5.6c3.5,0.6,4.8-0.4,9.3,1c0.2,0.1,0.5,0.2,0.7,0.2l2,0.7c0.2,0.1,0.5,0.2,0.6,0.3c2.2,1.3,1.6,0.9,2.4,2.9
		c-2.6,4.1-3.9-0.1-3,6.5l0.3,2.6l-6.9-1.1l-0.6,4.3c2.6-0.1,1.4-0.8,3.2-1c3.7-0.4,3.3,1.4,8,1.5c3.2,0.1-0.5-0.9,3.2,0.1
		c3.7,1-1,1.2,2.8,0.9c0.7-0.1,6.1-2.3,11.1,1.3c0.2,5.4-0.1-0.5-0.8,2.9c-0.3,1.5-0.4,2.2-0.4,4.3c-2.8-0.5-4.6-1.4-6.6,2.6
		l-0.5,1.3c0,0-0.4,3.3-0.4,3.3c2.6,1.4,1.5-1.1,2.8,1.3c0.7,1.4,0.1,0,0.4,1.6l0.3,2c2.4-2.6,2.6-3,6.7-3.8l1,4
		c-1.9,1.8-1.2,2-1.9,2.8l-1.7,1.5c-0.9,0.7-0.7,0.1-1.6,1.3c-2,2-0.4,0.8-3.4,2.2l0.4,4.9c0.5,3.4,2.1,3.6-2.2,4.1
		c-4.3,0.5,0.5,0.1-3.2-0.8c-3.1-0.7-2.3,0.9-5.6-1.2c-0.2-0.1-0.4-0.3-0.5-0.4l-2-2.4l2.9-3.4c1.3-1.4,0.6,0.3,0.6-1.5l-1.5-4.8
		c-3,0.8-4.6,1.6-5.9,3.6c-2.8,2.1-5.7,4.4-5.7,7.4c0.1,5,4.1,2.5,7.7,5.5c-0.3,3.7,0.1,1.6-1.1,3.7l-1.2,1.6
		c-7.1,11-6.8,3.4-8.8,3.7c-1.2,0.2-0.3,1.7-0.7,4.3c-5.8,0.4-2.6-1.2-5.5,1.9c-2,2.2-1.5,1.6-2,5.4c-3.4,0.2-2.4,1.2-6.4,1.7
		l0.5,18.7c-0.3,4-2.4,16.9-0.7,19.3c3.2,4.5,3.3-0.6,5.7-1.6c2.3-0.9,3,1.8,4.9,3.3c2,2.5,0.1,0.1,1.8,1.5c4.1,3.4,3.6,2.9,2.6,8.6
		l11.7,1.4c1.1,0.5,1.1,1.2,2.3,2.3c1.8-1.5,3.7-4.5,5.2-5.9c3.1-1.2,1.7,1.3,9.4,2.3l4.6,1.2c2.6,1,0-0.3,1.8,0.9
		c0.1,0.1,1.2,1.1,1.9,1.6l1.9-3.4H1741.7L1741.7,823.9z M1694.6,755.5c-3.3-2.9-1.7-0.8-2.6,0.3L1694.6,755.5z M1682.5,752.8
		c-0.8-0.7-2.5-1.8-3.6-1.9c-5.8-0.3-2.2,0.2-3.7,1.9c0.5,1.9,1.2,2,2,4.9c3.9-1.4,1.5,0.7,5.9-0.9L1682.5,752.8z M1686.5,753.8
		c2.1-4,1.1-9.5,0.9-14.1c-2,1.4-1.1-0.5-2.2,2.5C1684.3,744.9,1685.1,751.3,1686.5,753.8z M1693.8,745.1c0.4-3-0.9-2.9-3.1-3.8
		l-0.9,7.3C1691.1,748.1,1693.4,747.9,1693.8,745.1L1693.8,745.1z M1699.1,738.4c-1.6,2.2-1.1,1.2-1.3,6.5c3.5-0.5,4.7-1.4,6-3.9
		c-3.3,0.9-2.7,2-3,1.5c-0.1-0.2-0.4,0.3-0.6,0.4L1699.1,738.4L1699.1,738.4z M1650.6,740.9c1.5-0.7,0.9-0.1,2.3-1.4
		c0.8-0.8,0.9-1.2,1.8-2.6l-5.6,0L1650.6,740.9L1650.6,740.9z M1641.6,738.8c2.3-0.6,1.3,1.5,2.4-2.5
		C1639.8,736.6,1641.5,735.6,1641.6,738.8z M1656.1,739c3.1-1,2.4-1.3,4.9-2.5c-0.2-2.3-2.1-2-3-1.2
		C1657.5,735.7,1656.4,738.3,1656.1,739L1656.1,739z M1680.7,732.9l-0.5-1.6c-1.8-4,2.4,1.6-1.1-1.1c-2.1,1.8-2.1-0.2-1.3,3.2
		c0.9,3.5,1.7,4.8,5.1,5.6C1682.5,735.9,1682.6,734.9,1680.7,732.9z M1704.5,731.5c0.9,1.3,2.8,6.1,2.8,6.2c2.6-1.6,8.5-4.8,9.9-8
		c-2.1-1.6-1.3,0.1-3.8-2.4C1710.5,729.8,1709.5,731,1704.5,731.5L1704.5,731.5z M1659,728.8l-1,3.5l4.1,1.8l0-3.1l2.4-0.4
		c2.6,1.4,0.5,0.3,4.5,0.3c3.1,0,2.9,0,4.6,1.4c-1.6,2.9-0.3,1.9-3.3,4.3c3.2,1.3,4.4,1.6,7.7,0.3l-2.6-4.5
		c-2.4-5.8-9.7-7.9-18.5-8.6C1657.5,728.5,1656.4,726.9,1659,728.8L1659,728.8z M1683.4,734.3c0.3,1,0.4,2.2,0.8,3.1
		c0.9,2,0.4,0.7,1.3,1.4c2.3-3.1,1.4-0.7,1.2-4.6c-0.2-2.4-0.3-4.5-1.1-6.7c-1.6-4.5-1.7-2.9-2.9-3.1c-0.3,0.5-1.7-1.6-0.3,2.7
		C1684.4,733.1,1682.1,728.8,1683.4,734.3z M1710.3,726.9c-1.6-0.8-1.9-1.8-6.5,2C1708.5,729.4,1707.7,729.8,1710.3,726.9z
		 M1670.6,725c-1.6-5.8-3-2-10-8.1l-1.6,5.2L1670.6,725z M1700.9,724.7c2,0.8,4.9,2.2,7.7-1.8l-3.6-1.6l-0.2-6.6
		c-1.2,1.3-0.9,1.9-2.8,2.3c-3,0.7,1.7-0.5-1.9-0.1l-9,3.2l-4.2,0.5c3.4,6.7,1.8,3.3,4.2,5.3c-2.7,3.3-2.6,4.4-1.6,9.2
		c3-1.1,2.7-1.6,5.3-2.9c-0.7-2.2-3.3-4.5,0.2-6.1L1700.9,724.7L1700.9,724.7z M1657.2,722.3c-4.7-2-2.4-3.3-6.3-3.5l2.8,3.3
		C1657.6,725.1,1656.8,722.5,1657.2,722.3z M1667.4,720c-1-4-0.1-3-3.9-3.6C1665,718.9,1664.2,718.3,1667.4,720z M1668.9,714.9
		c-0.1-1.1-0.2-2.6-0.7-3.6c-1.7-3.4,0.1-0.6-1.9-1.7c-0.3,0.8,0.1,1.9,0.5,2.9C1668.3,716.7,1666.7,714.1,1668.9,714.9z"/>
	<g>
		<path class="st6" d="M107.7,632.5c4.4,1.5,2.9,2.3,6-0.4l0.7,5.6l-5,2.6C108,637.1,110.1,637.4,107.7,632.5L107.7,632.5z
			 M195.8,861.5l-11.3-30.3c-0.5-0.2-1.2-0.4-2-0.8l-9.2-3.2c-4.4-1.6-4.1-0.6-6.2,1.6c-3,2.8-1.5,3.1-4.8,5.4
			c-1.8-2.2-1.3-1.6-2.2-4.3c-5,2.2-4.4,1.5-6.5,0.1l-9-0.7c-0.2-0.2-0.5-0.9-0.6-0.7c-0.1,0.3-0.6-0.7-1.3-1.5
			c-4-4.4-3.5-2.6-3.7-7.8l-2.4-3.6c-7.6-0.9-3.8,2.9-7.1,3.6l-1.1-1.8c-0.1-0.3-0.3-0.6-0.4-1l0-5.8c-0.1-7.8-5.8-6.9-5.3-16
			c-2.2-3.1-1.3-10.3-1.2-14.7c0.2-7.6,0.5-16.8,1.2-24.3c1.1-12.1,2.6-7.4-1.9-19.3c-0.6-3.2-2.1-8.8-1.5-12
			c1.2-6.6,2.2,0.1,2.1-8.7c-0.1-7.7,3.6-14.1,5.6-20.8l0,0l2-1.5c1.5-3.8,6.3-11,8.5-13.4c3-3.3,9.9-5.4,15.5-6.9l13.5-13.8
			c10-9,13.5-4.2,21.9-7.4c0.1,0.2,0.1,0.4,0.2,0.8s0.1,0.7,0.2,0.8l0.6,1.6c0.1,0.2,0.3,0.5,0.4,0.8c3.7,5.5,2.2-1.5,5.7,6.8
			c5.4-1.4,2.7-1.4,8.5-0.5c1.6-6.3,2.9-6.5,9.9-7.4c0.7-5.9-0.4-3.8,3.8-6.6c-3.7-10.3,0.3-2.7-2.2-8.3c-9.7,0.2-9,4.6-14.5,7.9
			l-0.8-7c-6.3,0.1-6.9,2-9.6,1.1c-1-3.7,3.1-3.2,5.4-4.9c0.4-12.7-0.7-2.9,2.8-10.3l2.2-3.5c2.9-0.1,13.7,4.2,7.5-8.2
			c5.3-2.3,3.8-0.3,4.6-5.3c0,0-2.3-1.2-2.4-1.2c-3.9-1.6,1.1,0.4-2.7-0.9c-4-1.4-0.7,2-3.6-1.7c-1.3,0-4.5-0.2-5.6-0.1
			c-5.5,0.3-7.2,1.1-10.4,3.8c-2.4-3.8-2.4-4.3-5-6.6c-3.6,0.8-3.2,0.7-6,3.4c-0.1,0.1-0.5,0.8-0.6,0.6s-0.3,0.5-0.5,0.6l-4.9-3.5
			c-0.7-0.6-1.4-3.8-8.2-2.2c-3.9,0.9-2.4,2-7.3,3.5c-1.5-19.3,19.1,1.4,15.6-13.8c0-0.2-0.1-0.5-0.2-0.7c-1.2-4.8,0.1-1.3-2.5-6.2
			c3.3-0.6,5.4-2.2,7.8-3.4l-0.7-5c-5-0.9-1.7,1.3-4.4-3.7c-5.6,0-3.5,0.8-7.4-0.4c-0.3-0.1-0.6-0.3-0.8-0.4l-10.9-1.5
			c-5.3-0.4,2,2.1-5-0.4c-2.9-6.4,3.3-7.1-0.7-11c-2-2-7.5-0.4-8.8,0.3c-1.2-6.4,0.2-4.2,1.2-9.6c-5.4-3.7-5.4-2-11.1-0.6l-2.7-5.6
			c-18.9,1.5-5.2,0.3-14-2c-1.1,1.5-3.5,7.6-3.9,10.1c-5.8-4-4.5,0.6-10.5,3.7c-5.4-3-2.8-5.3-9.5-4.5c-2.2,3-2.5,5.3-2.2,9.4
			c-4.3-0.4-3.5-1.3-6.9,1c-0.6,3.6-0.3,4.3,1.4,6.4c2.3,3,0.9,0.9,4.6,3.1c-1.4,1.2-2.8,2.4-4.4,4.8c2,3,3.2,4.9,5.2,7.2
			c2.4,2.7,4.4,3.4,4.3,7c-0.2,5-2.1,1.9-5.8,9.3l-2.4,3.7c-1.7,2.1-0.2,4.7,1.2,11.7c-2.9-0.5-2.6-0.3-3.9-4.8
			c-0.9-3.2-1-2.3-2.3-5.1c4.9-3.2,3.6,0.7,6.4-5.4c-2.3-5.6-0.3-2.3-3.3-4.3l-14.7-2.8c-5.5,0.1-10.6,2.3-13.7,3.4
			c-3.6,1.2-1.2,1.2-4.7,4.9c-3.5-2.3-1.2-1.6-4.2-4.8l-5.2-4.5c-1.5,0.6-2.7,0.9-4.2,1.9c-5.2,3.7,0.3,0.6-2.6,5.6l-2.5,2.7
			c-0.1-0.2-0.6,0.4-1.1,0.8l3.7,8.6c-4.8-1.6-4.4-3.5-8.9-2c-0.3,0.1-3.4,2-3.8,2.3c-1.3,0.9-0.9,0.7-1.9,1.6l-1.2,1
			c-4.8-5.2-4.9-5-7.6-4c-6.4,2.2,0.6,2.4-4.2,5.7v3.6c4.1,4.3,2.1,4.6,2.1,4.6c-1.3,9.6,2.4,2,1.2,13.4c10.1,0,0.4,0.9,8.1,6.1
			c1.5,1,0-0.8,3.2,1.7l-7,10.3c1.8,2,2.4,3.3,4.7,6c10.3-2.5,0.2-2.4,9.6,1.6c2.2-3.9,4-3.9,7.8-6.7c1.3,0.8,5.5,4.5,9.5,4.2
			l9.5-5.1c3.9,2.2,2.8,2.5,5.6,4.5c1.1-0.8,2-1.4,3-2.7l1.2-2.3c0.1-0.2,0.3-0.7,0.4-0.8c0.1-0.2,0.2-0.6,0.4-0.9
			c8.7,1.8,5.9,6.2,13.7,7.8c5.2,1.1,3.2-1.1,8.1,0.2c3.7,1,2.6,2,6.7,4.1l4.3,2.3c7.2,3.2,17.3,18.9,18.2,31.1l0,0
			c0.7,13.2-2.7,21.9-1.3,36.9c5.3,11.1,3.9,33.6,3.5,46.7l-0.6,14.7l-1.4,28.9l-3.9,0.1c-1.4-3.5-0.3-4.3-2.1-7.6
			c-5.9,0-3.3,1.1-8.5,3.7c-5.7-4.3-6.6-3.7-7.7-4.5c-3.2-2.3-1.7-2.6-3.7-6.7l-1.9,1c-0.3,0.1-0.6,0.3-0.9,0.4l-1.7,0.6
			c-3.1,0.7-1.5-0.6-8.9,0.8l-2.7,0c-4.3-1.5,1.7-1.8-4.1-1.8c-6.3-0.1-5.1,7.4-4.8,11.5c-5.2-0.6-4.2,0.2-8.6,1.4
			c-11.9,3.4-8.9,6.4-10.8,8.8c-3.3,4.3-1.1-1-3.6,3.8C41.5,838.3,117.9,861.5,195.8,861.5L195.8,861.5z M117.3,693L117.3,693
			L117.3,693c-3.4-9.4-6.5-25.1,1.9-29.7l-0.3,29C117.8,693.2,118.6,693.4,117.3,693z M122.8,662.1c0.6-1.6,0.7-3.2,2.4-3.9
			c3.5-1.4,3,2.7,3.2,3.5L122.8,662.1L122.8,662.1z M107.5,649.4l0.3,1.7l0.1,2c3.5,5.3,4.6,15,3.2,22.2l-8.8-15.6
			c-0.1-0.5-0.5-0.5-0.7-0.7l-0.9-4c0,0-1.1-4.4-1.1-4.4c-0.3-4.5-0.5,3,0-2.2l0.7-2c2.2-0.5,0.5-0.4,1.7-1.8l1.6,2.2l3.3,0.5
			l0.5,1.8L107.5,649.4L107.5,649.4z M101.5,659.7l4.4,14c-3.5-2.4-2.6-2.8-5.4-6c-2.2-2.5-2.5-2.1-4.9-4.3l-5.2-1.4l-4.8-5.4
			l5.4-1.2l0.1-9.1c-9.9-3-11.9,1.7-15.1,0.7c-2.2-0.7,1.5-1.2-4.6-2l-2,6.1c-0.4,1.9,0.2,0.7-0.3,1.6c-4.9-2.7-5-2.6-9.1-5.9
			c0-6.5-0.1,1.8,0.8-3.2c0.4-2.3,1.3,0.3-0.3-3.4c-1.5-3.5-2.4-1.4-2.8-7.1c7.5-2,22.4,0.3,27.8,4.5c5.6,4.3,13,8.5,13.8,19.2
			C100.8,658,100.5,655.1,101.5,659.7L101.5,659.7z M148.5,671.4l-14.2,5.6c-6.6,4-5.5,10-9.8,9.4c-2.7-4.7,0.3-15.6,3.6-19.3
			c9.3,5.2,2.4,4.6,8.6,4.6c4.1,0,4.6-3,3.6-8.3c0.3,0.3,0.5,0.3,0.6,0.9l2.6,5.4c7.4-0.8-5,2.1,2-0.4l6.3-3.7L148.5,671.4
			L148.5,671.4z M132.2,650.3c-4.1,1.6-1.5,0.7-5,2.9c-3.6,2.3-0.4,0.8-3.9,2.3c-0.7-7.3-1.4-8.2,0.3-15.6c2.6-1.2,3.9-3.9,4.3-7.7
			l-4.2,3.3l-5.9-10.2c2.8-0.3,9.6-0.3,10.9-0.7c3.8-1.3-2.5,1,1.3-0.7c4.1-1.8,3.2,0.9,5.6-0.1c3.5-3.3,1.6-2.5,6.4-4.7
			c6.9-3.1,0.9-0.2,7.5,0.7l2.1-7.1c6,7.1,2,8.4,1.3,11.7c0.1,6.7,1.4,4.7,8,5.6c-0.8,2.7-3.3,5.9-7.9,6l-7.2-1.8
			c-4.5-0.7-3,2-8,2.6c-3.8,0.5,2.8-3-8.7,2.8c1.1,4.6,2.4,5.1,5.1,7.4c-1.4,2.7,0,0.1-1.2,2.3L132.2,650.3L132.2,650.3z
			 M116.6,639.7c1.2,10.3,4.1,15.7-1,23.2c-2.9-3.1-1.7-3.7-4.5-9.6c-1.8-4-1.5-5.3-0.9-9.8C112.8,641.3,112.7,639.1,116.6,639.7
			L116.6,639.7z M152.8,648.3c2.4-1.8,2.8-1,5.9-1.7c3.4-0.9,10.1-5,11.7-8.3c0.3,0.3,0.5,0.7,0.7,0.9c5.2,5.6,3.3,1.8,6.8,3.2
			c-0.2,8.5-8.7,9-20.3,17.5C158.4,652.6,154,650.1,152.8,648.3z M180.7,648.9c2.9-7.6,2.8-6.9,7.7-8.9
			C186.4,644.4,184.7,647.4,180.7,648.9z M151.7,641.1c5.5-2.8,9.3-5.3,12.8-2.4l-3,3.6C156,642.7,154.2,642.6,151.7,641.1
			L151.7,641.1z M107.5,649.3c-1.8-6.3,1.2-5,2.9-5.8L107.5,649.3z M64.3,628.6c0.3-10.3,6.1-5.9,10.7-3.1c5,3.1,10.7,2.8,11.6,9.3
			L64.3,628.6z M47.1,623.3c1.3-1.2-0.4-2.9,3.6-0.9c4,2-2.5,0.3,4.1,3.4c3.9,1.8,5,0.9,8.2,4.1l-8.1,0.8c-0.7-1.1-0.7-0.2-1.3-2.7
			c-0.3-1.1-0.1-1.8-0.2-2.6C49.5,625,49.7,625.6,47.1,623.3L47.1,623.3z M69.8,621.2c-4.7-0.6-2.9,0.7-3.7-1.6
			C66.5,619.5,64.9,614.2,69.8,621.2z M80.3,625c-4.6-1.4-7.4-3.9-9-7.6l7,0.4L80.3,625z"/>
	</g>
	<path class="st6" d="M827.8,712.6l1.8,5.7c0.8,3.2,0.9,15.7,1.1,20c1.1,2.6,0.5,22.3,0.3,27.8c-4.3-0.1-8.1-1.6-8.6-6.2
		c-1.8-7.3-0.7-14.9-3.1-22.6c-0.8-2.5-1.5-2.1-2.2-4.8l-2-16.8c-2.8-2.6-4.3-6-10.5-4.3c-5,1.3-6.4,3.5-7.2,8.5
		c0.3,5.7,0,10.3,1.6,15.4c1.6,5.1,4.1,7,3.4,13.7c0.5,0.6,0.4,0.4,0.6,1.6l0,5.1c-0.1,2.6-0.2,4.9-0.1,7.5
		c0.5,8.3,2.5,10.9,6.8,15.8c1.8,2,2.2,1.6,4.5,2.9c3.6,2,5.6,3.3,7.9,6.4c5.3,7.3,8.2,2.6,7.3,22.5c-0.3,6.6-1.1,15.3-2.2,22.3
		h32.1c-0.9-4.7-2.2-13.9-1.4-16c1.5-1.7,9-1.9,15.8-7.7c5.3-4.5,13.4-9.9,15-19.3c1.8-10.3,3-20.9,3.5-31.2c-0.1-4.3,1-10.6,1-14.6
		c0-1.9-0.6-5-1.5-6.4c-1.2-1.7-3.2-1.9-4.3-2.7c-7.7-0.6-11.7,0.3-12.9,7.5c-0.9,5.7-0.9,13-1.2,18.9c-0.1,6.1-1.4,13.1-2,19.4
		c-0.4,4.2-0.7,8.6-3.8,11.5c-0.6,0.5-2.2,1.9-2.8,2.2c-2.5,0.2-7.4,0.5-9-0.6l-1.3-30.2c0-19.3-2.5-19.7,9.4-23.9
		c5.9-2.1,13.5-8.6,16.8-12.9l2-2.4c0.1-1.4,1.6-4.2,2.1-6.7c0.5-2.6,1.1-4.4,1.7-6.9c0.9-4,1.3-11.6,2.8-14.6
		c0.4-4.9-0.1-12.3-1.6-16.3c-1.6-4.1-7.5-8-11.5-4.1c-5,4.9-8.6,18.9-9,26.5c-0.1,3-2.2,11-3.4,13.2c-1.9,3.3-8.5,6.1-9.9,5.8
		c-1-2.3-1.1-12.6-0.9-16l-1.1-2.1c-1.3-2.6-5.2-7.1-6.9-9.7c-2.1-3.1-1.6-12.4-1.6-17.1c0.1-19.5-0.7-22.5-16.2-22.1
		c-3.5,0.1-5,1.6-6.3,3.7c-3.4,5.6-2.1,18.7-2.1,25.9c0,8.9-0.1,8.7,2.9,15.9c1.4,3.4,5.9,9.6,6.2,12.6L827.8,712.6z"/>
</g>
<g id="Layer_2">
</g>
</svg>
