<svg id="Layer_1" data-name="Layer 1" xmlns="http://www.w3.org/2000/svg" viewBox="0 0 1890.7 336.28"><defs><style>.cls-1{font-size:63.23px;font-family:MyriadHebrew-Regular, Myriad Hebrew;}.cls-2{letter-spacing:0.01em;}.cls-3{letter-spacing:-0.04em;}</style></defs><path d="M20.56,446.82c17.65-9.35,34.84-20.08,55.5-22,11.85-1.08,22.32,3.81,27.81,14.14,7,13.16,13.62,27,17.44,41.28,10.82,40.6,20.12,81.6,30.08,122.43a19.6,19.6,0,0,0,5.39,9.85L219.42,431.2l3.43.41c15.61,59.35,31.23,118.71,47.06,178.9,1.08-.94,2.25-1.54,2.81-2.5C296.27,567.62,316.63,526,324.2,479.2c3.08-19,1.84-30-6.64-57.43,10.67-.65,19.19,3.06,26.84,10.33,2.56,2.43,7.59,4.33,10.85,3.62,12.69-2.79,25-7.08,37.67-10.14,12.47-3,18.61.51,20.35,13.21,2,14.17,2.31,28.59,2.74,42.92s.1,28.61.1,43.39H519c1.37-17.54,2.7-34.76,4.06-52,1-12.62,2.45-25.21,3-37.85.41-10.59,7.58-9.35,14.4-9.4,7.63-.05,9.79,3.82,9.41,11.11-1.9,36.22-3.86,72.45-4.91,108.7-.62,21.17.27,42.4.81,63.59.12,4.72,1.33,9.47,2.53,14.09,2.4,9.25,8.38,13.77,18.17,12.76,5.63-.57,11.27-1,16.91-1.55l1,2.91c-11.68,5.08-23.1,11-35.14,15-10.8,3.62-20.12-1-24.06-11.76a91.66,91.66,0,0,1-5.84-27.86c-.79-24.24-.26-48.53-.26-74.37H413.48q-1.62,54.94-3.24,109.31a43.83,43.83,0,0,1-5.22,1.39c-19.58,2.13-19.23,1.68-20.22-17.94-2.88-56.69-6.45-113.34-9.75-170-.06-1-.16-2.05-.32-3.06-3-18.81-5.18-20.21-24.09-15.57-3,39.29-19.58,74.36-35.12,109.59-13.93,31.59-29.44,62.48-43.91,93.85-3.38,7.32-9.61,9.58-15.78,8.19-3.19-.73-6.37-7-7.32-11.25-10.94-49.39-21.45-98.88-32.1-148.33-.33-1.55-.94-3-2.08-6.65-2,4.34-3.32,6.84-4.25,9.47q-26.09,73.44-52,146.94c-2.16,6.12-5.1,9.4-12.4,9.51-8.42.12-12.23-2.73-14-11Q116.76,572.72,101,502.68C98.21,490,94.41,477.57,90.78,465.1c-4.19-14.41-14.55-21.16-29.3-19.5l-40.09,4.48Z" transform="translate(-20.56 -404.63)"/><path d="M1455.57,641.53c-.75,3.1-1.53,6.3-2.39,9.87-9.57-10.15-10-16.85-2.93-43.43l-12.55,4.87c1.81-6.25,3.25-11.24,5.34-18.43l-14.19,8.46c-.56-8.5-1.12-16.8-1.67-25.1l-2.32,0,12.25-14.61c3.35,6.26,5.87,15.78,14.45,6.38a10.78,10.78,0,0,0,2-8.88c-.48-1.66-4.87-3.05-7.49-3-7.5.08-15.32,2.5-22.39,1-6.25-1.31-11.83-6.38-17.36-10.28a56,56,0,0,1-11.15-9.95c-2.1-2.55-4.68-8-3.59-9.35,9.42-11.45,19.63-22.24,29.58-33.24,1.58-1.74,3.23-3.45,4.63-5.33,4.87-6.56,8.68-14.26,14.66-19.54,9.48-8.37,14.35-15.8,10.08-29.76-3.2-10.5,1.41-22.2,13.25-30.17,1.35,7.25,2.53,13.62,4.13,22.18,9.2-12,15.15-25,30.89-28.52-1,7.12-1.82,13.26-3,22,27.17-19.86,52.83-20.13,79.87-2.3l-20.46,7.77.64,2c3.86-1,7.78-1.74,11.57-2.94,11.09-3.53,21.2-1.75,29.62,6.18,4.75,4.48,8.79,4.61,14.5,1.9,9.89-4.69,20.11-8.74,30.38-12.56,25-9.31,45.79-5.25,61.37,16.19,16.22,22.31,29.88,46.56,43.6,70.57,17.36,30.38,34.89,60.51,59.66,85.7,1.66,1.69,3.49,3.22,7,6.43,0-6.26,0-10.77,0-15.29.06-41,0-82.08.29-123.13a120.87,120.87,0,0,1,2.34-20.36c3.92-21.89,10.09-25.87,31.16-21.76-5.07,22.51-12.63,44.81-14.72,67.61-4.56,50-6.4,100.27-9.24,150.44-.59,10.36-4.88,15-13.27,12.22-3.31-1.1-6.12-5-8.21-8.28q-50-77.7-99.86-155.56c-5.7-8.86-11.9-17.4-19-27.67-.71,3.34-1.23,4.81-1.3,6.31q-4.11,79.43-8.19,158.85a89.28,89.28,0,0,1-2.46,18.26c-.83,3.1-3.6,7-6.37,8-4.52,1.51-9.75.87-14.68,1.15.24-4.51-.36-9.26.86-13.49,10.61-37.09,14.36-75.2,16.46-113.44,1.35-24.58,1.33-49.26,1.17-73.89-.1-14.53-4.15-18.33-19-17.49-14.2.79-28.29,3.29-42.87,5.09l12.8,28.11-2.25,1.66-20-10c18.16,14.6,38.49,27.35,43.19,52.21,4.4,23.23.4,45.57-13.59,65.9V556l-1.49-.12c-2.7,11.74-4.64,23.73-8.32,35.15s-9.06,22.16-21.23,29.43c2.07-9.15,3.91-17.27,5.74-25.38l-5.08-1.72c-1.27,19.29-12,33-22.62,47.66-11.45,15.77-27.62,20.68-43.77,27.64,49-23.06,60.74-67.37,66-115.45l3.5.15c1.26,12.18,2.51,24.37,3.85,37.36,13.74-9.86,15-50.48,3.34-66.58,11.87-1.38,20.48,6.87,25.08,25.43,1.26-3.16,2.52-5,2.65-6.83,1.83-26.45-5.69-48.64-29.31-63.44-6.39-4-12.48-8.46-18.94-12.34-2.87-1.73-6.3-2.53-9.47-3.75q2.12-3.26,4.24-6.51l26.73,3.57a33,33,0,0,0-38.7-24.17c-9,1.88-17.94,4.28-26.94,6.28-1.18.26-2.59-.5-5-1,3-11.55,13.23-13.9,22.94-18.71-19.27-8.14-36.41-8.21-52.87,3-1.69,1.16-3.14,2.68-4.87,3.77-7.68,4.81-11.29,3.12-12.23-5.72-.21-2,0-4.09-2.27-7.42-3.5,5.73-6.89,11.54-10.55,17.17-2.07,3.19-4.57,6.09-6.88,9.12-2.44-3.08-5-6.09-7.28-9.27-1.14-1.6-1.83-3.52-3.32-6.47-6.41,13.47-.82,23.6,7.06,34.88-16.91,3.82-26.79,14.73-34.28,29.69,9.47,1.4,15.25-12.38,25.87-5.18l-6.59,4.95,12.12,4.6-23.36,7.43c-.44-7.18-5.74-9.84-12.32-4.87-8.63,6.52-16.28,14.33-25.55,22.66l13.86,6.21c-8.7,22.6-5.4,26.93,19.16,26,3.43-.13,6.85-.47,10.27-.55,6-.16,12.18-.4,13.69,7.36,1.59,8.14-1.4,14.41-9.38,17.09-4.39,1.47-9.31,1.38-14.77,2.1l2.38,7.9,9-3.66c1,4.43,1.93,8.19,3.26,13.83,2.75-3.51,5.44-5.91,6.83-8.9,5.48-11.78,10.46-23.78,15.8-35.62,2.57-5.67,1.41-8.91-4.26-12.41-7.85-4.84-14.68-11.33-21.94-17.12l1.6-2.1L1478,538.74c2.92-10.21,5.23-18.27,7.53-26.33l2-.18c0,3.48.92,7.27-.14,10.38-9.85,28.68-20.06,57.23-30.13,85.84-2.31,6.57-4.44,13.21-4.69,20.63l11.43-8c-4.15,18.12,0,32.4,11.62,44.65l-4.2,1.89Z" transform="translate(-20.56 -404.63)"/><path d="M977.76,475.39c0-6.78.39-13.59-.09-20.34-.91-12.8-4.4-16.4-17.24-16.64-19.85-.38-39.71-.1-60.42-.1-.81,5.19-1.89,8.75-1.84,12.3.28,21.89,1.06,43.77,1.11,65.66,0,8,3.88,10,10.75,10,15.78-.1,31.56,0,47.34,0h13.21c2.85,10.59-1.53,14.21-10.61,14.21-16.47,0-32.94.05-49.4.09H897.45v89.13c22.09,0,44.65.93,67.09-.28,20.19-1.08,27.57-9.57,27.72-29.37.06-7.88,4-8.18,11.8-7.56-1.59,12.46-2.16,25-5,37-3.23,13.69-12.19,20.24-26.27,19.81-11.93-.36-23.85-2.27-35.7-4-22.58-3.28-45-3.72-67.29,1.76,0-25.51-.66-50.76.16-76,1.08-33.5,3.41-67,4.95-100.47a68.18,68.18,0,0,0-1.37-16.3c-2.82-14.23-16.13-22.17-28.66-15.17-13,7.25-25.83,5.07-39,4.16-8.2-.57-16.33-2-24.49-3-9-1.12-12.93,2.22-13.09,11.86-.87,53.39-2.28,106.77-3.4,160.15-.23,11.25,0,22.51,0,34.32l-24.72,2.92V441c-10.54-1.08-20-2.61-29.55-2.92-19.72-.64-31,8.94-30.79,28.7.22,17.25,3.66,34.46,5.78,51.68.44,3.58,1.29,7.1.64,11a24.54,24.54,0,0,1-2.22-4.4c-5.16-19.11-10.22-38.24-15.31-57.36-7.16-26.92,1.15-40.88,28.89-42.93,21.06-1.56,42.43,1.37,63.66,1.31,25.61-.09,51.22-1.51,76.83-1.72,6.84-.06,13.76,3.44,20.54,3.13,25.68-1.2,51.31-3.71,77-4.89,14.31-.66,28.7.24,43.05.59,8.31.21,11.57,5.63,11.37,12.93-.32,11.95-1.06,23.92-2.4,35.79-.25,2.19-4.16,4-6.38,5.94Z" transform="translate(-20.56 -404.63)"/><path d="M1172.47,656c0-17.54-.7-36.27.14-54.92,2.07-46.11,5.34-92.18,7.09-138.3.78-20.58-8.43-28.36-28.76-25.64-17.23,2.31-34.24,6.26-51.33,9.54-2.94.57-5.83,1.43-9.32.19,7.48-2.15,15-4.15,22.43-6.49,17.62-5.56,35.14-11.42,52.79-16.85a73.67,73.67,0,0,1,15.13-2.73c15.3-1.36,25,4.24,25.91,19.47,1.34,22.37-.46,45-1.28,67.43-1.48,41-3.24,82-4.82,123a15.84,15.84,0,0,0,.6,4.2c22.92,1.49,45,3.23,67.13,4.28,17.81.85,26.42-6.8,29.1-24.71.86-5.68,1.5-11.4,2.39-18.23l12.72,2.59c-1.1,12.48-1.12,24.85-3.52,36.75-3,14.84-12.54,22.17-27.83,22.33-10.21.1-20.46-1.39-30.66-2.47-13.27-1.4-26.52-4.38-39.76-4.31C1197.87,651.19,1185.14,654.26,1172.47,656Z" transform="translate(-20.56 -404.63)"/><path d="M1345.46,655.5c0-18-.65-35.34.13-52.65,1.77-39.25,4.4-78.46,6.31-117.7a188.89,188.89,0,0,0-.75-31.65c-1.74-14.41-9.1-19.28-23.54-16.76-18.87,3.29-37.67,6.94-56.52,10.36-3.17.58-6.4.81-9.88,1.24.26-1.34.25-1.94.39-2,32.36-8.3,64.51-17.6,97.18-24.36,14.64-3,21.83,5.05,22.12,21,.27,14.31-1.42,28.65-1.84,43-1.46,49.49-3,99-4,148.49-.38,20-1.79,22-22.1,21.61C1351.3,656.08,1349.6,655.85,1345.46,655.5Z" transform="translate(-20.56 -404.63)"/><path d="M558.71,436c21.52-3.4,42.95-7.7,64.59-9.88,14.62-1.47,18.44,3.18,18.1,17.84q-2.25,96.45-4.9,192.91c-.07,2.69-.6,5.37-.93,8.19a37.81,37.81,0,0,1-5.07,1.63c-17.36,3-18.64,1.63-18-15.87,1.86-49.58,3.47-99.17,5.15-148.76.15-4.44.09-8.9.05-13.35-.23-27.11-1.43-28.2-27.93-29-10.25-.29-20.48-1.38-30.73-2.11Z" transform="translate(-20.56 -404.63)"/><path d="M1531.1,540c3.23-7.1,6.45-14.2,9.94-21.9l-8.5-2.85c12.21-18,20.84-36.06,11.58-57.51L1521,463.62l-.44-1.37c6.37-4.66,12.62-9.53,19.22-13.85,1.51-1,5.36-1,6.24.07,3.9,4.79,8.3,9.73,10.21,15.4,1.64,4.87.29,10.8,0,16.26-.56,11.27-11.66,48.48-16.26,54.38-2,2.5-4.28,4.69-6.44,7Z" transform="translate(-20.56 -404.63)"/><path d="M1534.14,567.73l-31.29,15.87-3.62-3.9,15.67-27.92,3.95,1.66c-2.61,6.16-5.23,12.32-8.29,19.52,8-2.33,13.57-11.39,22.16-9Z" transform="translate(-20.56 -404.63)"/><path d="M1526.3,479.92l-12-1-.51-3.05c4.41-.68,10.08-3.34,12.91-1.54,3.49,2.21,6.77,8.39,6.3,12.4-.85,7.18-4.59,14-7.12,21l-3.06-.58C1524,498.34,1525.07,489.53,1526.3,479.92Z" transform="translate(-20.56 -404.63)"/><text class="cls-1" transform="translate(1333.72 315.73) scale(1.63 1)">D<tspan class="cls-2" x="42.11" y="0">E</tspan><tspan x="73.73" y="0">VE</tspan><tspan class="cls-3" x="139.99" y="0">L</tspan><tspan x="167.37" y="0">OPING</tspan></text></svg>